<svg width="200" height="200" viewBox="0 0 200 200" fill="none" xmlns="http://www.w3.org/2000/svg">
<g clip-path="url(#clip0_5_87)">
<path d="M126.04 144.913C119.156 146.35 112.042 147.042 104.808 147.344C86.4521 148.108 67.1604 146.49 49.5687 141.11C26.15 133.95 16.3854 105.456 31.5562 85.8333C35.9771 80.1208 41.8292 76.775 47.5021 72.5438C54.1792 67.5625 60.2937 61.8271 65 54.9125C69.1083 48.8729 71.8167 41.9625 76.3042 36.1813C81.2646 29.7938 88.6771 25.8104 96.6042 24.5458C125.065 20.0021 156.577 36.425 173.804 58.6083C192.779 83.05 176.594 116.317 154.675 132.531C145.875 139.04 136.206 142.792 126.04 144.913Z" fill="#C1E1E4"/>
<path d="M18.3292 107.102C17.6146 107.102 17.0104 106.554 16.9521 105.831C15.7667 91.4063 22.7687 79.6542 37.7625 70.9083C51.3542 62.9792 60.6333 47.8917 60.7292 47.7375C61.1271 47.0875 61.9771 46.875 62.6312 47.2729C63.2833 47.6708 63.4896 48.5208 63.0979 49.175C62.7083 49.8167 53.3708 65.0104 39.1625 73.3C25.1687 81.4625 18.6229 92.3292 19.7167 105.604C19.7812 106.369 19.2104 107.033 18.4521 107.096C18.4062 107.102 18.3708 107.102 18.3292 107.102Z" fill="#C1E1E4"/>
<path d="M60.5333 172.76C60.5333 172.76 61.0812 176.829 61.6187 177.444C63.4229 179.519 67.4854 178.817 69.5021 177.565C70.7771 176.775 69.5917 174.04 69.5917 174.04L60.5333 172.76Z" fill="#125F66"/>
<path d="M66.9438 168.583C66.9438 168.583 68.2 171.358 68.4 171.654C68.6021 171.948 72.025 176.146 67.4771 177.073C62.9292 178 61.9042 177.348 60.8271 174.275C60.2083 172.498 60.8813 169.05 60.8813 169.05C60.8813 169.05 61.1313 170.075 62.6958 170.098C65.4396 170.135 66.6417 169.579 66.9438 168.583Z" fill="#072A2E"/>
<path d="M66.4333 170.642L62.9625 171.129C62.8313 171.148 62.7125 171.056 62.6958 170.925C62.6771 170.794 62.7667 170.677 62.8979 170.658L66.3688 170.171C66.5 170.152 66.6188 170.244 66.6354 170.373C66.6542 170.504 66.5646 170.623 66.4333 170.642Z" fill="white"/>
<path d="M66.65 171.581L63.1792 172.069C63.0479 172.088 62.9292 171.996 62.9125 171.865C62.8938 171.735 62.9833 171.617 63.1146 171.598L66.5875 171.11C66.7188 171.092 66.8354 171.183 66.8542 171.315C66.8708 171.442 66.7813 171.563 66.65 171.581Z" fill="white"/>
<path d="M66.8896 172.683L63.4187 173.173C63.2875 173.19 63.1687 173.1 63.1521 172.969C63.1333 172.838 63.2229 172.721 63.3542 172.702L66.8271 172.215C66.9583 172.196 67.075 172.285 67.0937 172.417C67.1104 172.548 67.0208 172.667 66.8896 172.683Z" fill="white"/>
<path d="M60.3125 125.512C58.4146 117.506 57.8354 109.352 57.8354 109.352L50.3875 103.531L34.1271 109.469C33.5854 116.725 33.9958 149.233 33.9729 153.704C33.9521 158.175 33.925 168.76 33.925 168.76C33.925 168.76 39.2896 169.954 41.4312 168.146C41.4312 168.146 42.5125 160.344 42.775 156.696C43.6604 144.256 45.9521 123.279 45.9521 123.279C45.9521 123.279 49.4458 133.231 52.4396 141.106L59.4854 167.76C66.1083 168.404 67.9875 166.7 67.9875 166.7C67.9875 166.7 61.5917 130.9 60.3125 125.512Z" fill="#072A2E"/>
<path d="M45.9521 123.388C45.9021 123.388 45.8583 123.35 45.8479 123.302L44.8771 118.329C44.8667 118.271 44.9042 118.217 44.9583 118.206C45.0167 118.198 45.0708 118.233 45.0792 118.288L46.0521 123.26C46.0604 123.319 46.025 123.373 45.9708 123.383C45.9667 123.388 45.9604 123.388 45.9521 123.388Z" fill="#C1E1E4"/>
<path d="M45.4688 120.902C45.4542 120.902 45.4417 120.896 45.4271 120.892C45.3521 120.86 43.5833 120.129 42.8333 119.508C42.7875 119.473 42.7833 119.404 42.8208 119.36C42.8563 119.315 42.9229 119.31 42.9688 119.346C43.6958 119.944 45.4917 120.69 45.5083 120.698C45.5646 120.721 45.5854 120.779 45.5688 120.833C45.55 120.879 45.5083 120.902 45.4688 120.902Z" fill="#C1E1E4"/>
<path d="M25.2104 176.2C25.2104 176.2 24.7854 178.646 27.6646 178.94C30.5437 179.233 32.5646 179.075 34.05 178.754C35.5375 178.429 36.375 177.963 37.9375 178.094C39.5021 178.225 41.1021 178.877 41.8896 178.081C42.5354 177.429 41.9437 175.648 41.9437 175.648L33.3229 175.69L25.2104 176.2Z" fill="#125F66"/>
<path d="M34.3271 170.944C34.3271 170.944 30.9083 173.379 29.2271 174.213C27.5458 175.04 25.3625 174.465 25.2146 176.2C25.0646 177.935 29.8104 177.556 32.5917 177.298C35.3708 177.042 37.3188 175.956 38.775 176.39C40.2292 176.819 41.8479 176.127 41.9521 175.648C42.0563 175.171 41.3563 170.948 40.9854 170.546C40.9854 170.546 40.7813 171.377 38.0417 171.45C35.3021 171.517 34.3271 170.944 34.3271 170.944Z" fill="#072A2E"/>
<path d="M31.1396 174.469L31.1 174.496C31.0188 174.546 30.9188 174.519 30.8688 174.438L30.3479 173.556C30.3042 173.475 30.3271 173.371 30.4083 173.325L30.4479 173.298C30.5292 173.248 30.6292 173.275 30.6792 173.356L31.1979 174.24C31.2479 174.315 31.2208 174.419 31.1396 174.469Z" fill="white"/>
<path d="M31.9167 173.919L31.8771 173.946C31.7958 173.994 31.6958 173.967 31.6458 173.885L31.1271 173.004C31.0812 172.923 31.1042 172.819 31.1854 172.775L31.225 172.748C31.3062 172.698 31.4062 172.725 31.4562 172.806L31.975 173.688C32.0208 173.769 31.9937 173.873 31.9167 173.919Z" fill="white"/>
<path d="M32.8208 173.335L32.7813 173.363C32.7 173.413 32.6 173.383 32.55 173.302L32.0313 172.421C31.9854 172.34 32.0083 172.235 32.0896 172.192L32.1292 172.165C32.2104 172.115 32.3104 172.142 32.3604 172.223L32.8792 173.104C32.925 173.185 32.9021 173.29 32.8208 173.335Z" fill="white"/>
<path d="M33.7167 172.76L33.675 172.788C33.5937 172.838 33.4958 172.81 33.4458 172.729L32.925 171.848C32.8792 171.767 32.9021 171.663 32.9833 171.617L33.025 171.59C33.1062 171.54 33.2062 171.567 33.2562 171.648L33.775 172.529C33.8208 172.606 33.7937 172.71 33.7167 172.76Z" fill="white"/>
<path d="M41.5354 91.9458C36.2937 92.7687 27.3062 94.9646 27.3062 94.9646C27.6583 89.6 28.3062 85.35 29.1021 81.9917C31.9312 70.0312 37.4687 69.2896 37.4687 69.2896L41.5687 71.3687L46.3187 73.3854C46.3187 73.3854 46.7792 91.1229 41.5354 91.9458Z" fill="#FDC3A6"/>
<path d="M35.65 93.025C35.65 93.025 37.9646 99.5167 33.4354 100.204C31.7813 100.456 23.9125 94.0958 23.9125 94.0958L29.1146 90.8104L35.65 93.025Z" fill="#FDC3A6"/>
<path d="M41.5687 71.3687C41.225 75.8542 40.3292 81.5854 38.0062 82.0812C35.1229 82.6979 30.9917 82.2542 29.0958 81.9917C31.9271 70.0312 36.8937 69.1958 36.8937 69.1958L41.5687 71.3687Z" fill="#125F66"/>
<path d="M34.8187 82.4396C34.7833 82.4396 34.7604 82.4125 34.7604 82.3813C34.7604 82.3438 34.9812 78.9688 35.4375 77.1417C35.4479 77.1104 35.4792 77.0917 35.5062 77.1C35.5375 77.1104 35.5562 77.1417 35.5479 77.1688C35.0896 78.9896 34.8729 82.3542 34.8729 82.3896C34.8729 82.4125 34.85 82.4396 34.8187 82.4396Z" fill="#072A2E"/>
<path d="M39.0229 72.6667C39.0417 72.6167 43.5021 77.3458 46.4125 76.3917C49.6688 75.3208 51.1229 68.6896 51.1229 68.6896L50.6083 62.0312L50.6042 61.9229L50.5938 61.525L49.9521 61.7604L47.3979 62.6917L46.3729 63.0667L43.75 64.0187C43.75 64.0187 43.7063 65.7417 43.3813 67.1396C43.3438 67.2875 43.3125 67.4229 43.2771 67.5583C43.2042 67.7896 43.0958 68.0062 42.9729 68.1875C42.6938 68.625 42.3458 68.9062 42.3458 68.9104C41.6854 70.2979 39.0458 72.6667 39.0229 72.6667Z" fill="#FDC3A6"/>
<path d="M40.0125 60.0688C40.8354 63.6854 42.2917 67.3063 45.7938 66.7688C48.2438 66.3875 50.6042 62.9938 51.1333 59.8792C51.4042 58.2708 51.6563 56.8688 51.6521 55.8104C51.6479 54.975 51.6063 54.45 51.6063 54.45L51.0063 52.6333L50.6479 51.5708C50.6479 51.5708 49.8625 50.9333 48.9813 50.2146C47.8833 49.3167 46.1917 50.6167 46.1646 50.5542C46.1188 50.4583 41.1979 49.7729 39.6521 51.7438C39.6458 51.7479 39.6417 51.7521 39.6417 51.7563C39.5021 51.9375 39.3938 52.1188 39.325 52.3042C39.2667 52.4563 39.2396 52.6146 39.2396 52.7729C39.2396 53.0771 39.2542 53.5333 39.2708 54.1063C39.2854 54.3458 39.2938 54.6083 39.3125 54.8896C39.3396 55.3583 39.3792 55.875 39.4333 56.4167C39.5438 57.5521 39.7229 58.8167 40.0125 60.0688Z" fill="#FDC3A6"/>
<path d="M40.4375 61.7271C41.1917 65.0313 42.5979 67.0896 45.8313 66.7688C48.9229 66.4646 50.55 63.1604 51.0333 60.3125C50.7708 59.6396 50.5 57.9708 50.5 57.9708C50.5 57.9708 49.7083 56.7417 49.7167 56.7875C49.8208 57.2979 49.7854 60.7875 48.2854 61.2208C46.6521 61.6958 46.0708 62.1167 45.4458 62.1083C44.8229 62.0979 44.6375 61.8813 44.0896 62.0167C43.5375 62.1521 43.1625 62.4417 42.4229 62.3167C41.725 62.2021 40.9583 62.6958 40.4375 61.7271Z" fill="#072A2E"/>
<path d="M51.8146 55.7708C51.8146 55.7708 52.4021 47.8521 47.7875 47.8521C47.7875 47.8521 44.1938 46.1688 40.2208 48.4604C37.6083 49.9667 38.5521 53.1271 38.8146 54.2208C38.9771 54.9063 39.2583 55.4771 39.3479 55.4396C39.6021 55.3375 39.6292 54.65 40.5563 54.8625C44.3125 55.7208 46.6667 52.9042 47.7188 53.5188C48.7729 54.1333 51.0375 60.3125 51.0375 60.3125C51.0375 60.3125 51.2271 57.3938 51.8146 55.7708Z" fill="#072A2E"/>
<path d="M50.9021 56.4583C50.9021 56.4583 52.9812 54.9667 53.0083 57.1271C53.0354 59.2875 51.0292 60.3187 51.0292 60.3187L50.9021 56.4583Z" fill="#FDC3A6"/>
<path d="M51.4583 57.1271C51.4583 57.1271 53.1125 56.5437 51.525 58.9396L51.4583 57.1271Z" fill="#072A2E"/>
<path d="M42.2583 59.0083C42.3021 59.1625 42.3083 59.3063 42.275 59.4354C42.2437 59.5625 42.1812 59.6417 42.0896 59.6667C41.9979 59.6938 41.9042 59.6604 41.8083 59.5688C41.7125 59.4771 41.6417 59.3521 41.5979 59.1958C41.5521 59.0417 41.5458 58.8979 41.5792 58.7688C41.6125 58.6417 41.675 58.5625 41.7667 58.5375C41.8562 58.5104 41.95 58.5438 42.0458 58.6354C42.1437 58.7271 42.2125 58.8521 42.2583 59.0083Z" fill="#072A2E"/>
<path d="M46.25 58.3521C46.2937 58.5083 46.3 58.65 46.2667 58.7792C46.2333 58.9083 46.1729 58.9854 46.0812 59.0104C45.9896 59.0375 45.8958 59.0042 45.8 58.9125C45.7042 58.8208 45.6333 58.6979 45.5896 58.5417C45.5437 58.3854 45.5375 58.2417 45.5708 58.1146C45.6042 57.9854 45.6646 57.9083 45.7562 57.8813C45.8479 57.8542 45.9417 57.8875 46.0375 57.9792C46.1333 58.0708 46.2042 58.1958 46.25 58.3521Z" fill="#072A2E"/>
<path d="M42.4229 57.9771C42.4229 57.9771 41.3875 57.3021 40.5688 57.8083L42.4229 57.9771Z" fill="#072A2E"/>
<path d="M47.1917 56.8188C47.1104 56.8146 45.8312 56.675 45.1292 57.5375L47.1917 56.8188Z" fill="#072A2E"/>
<path d="M43.9229 60.7479C43.6688 60.7479 43.5563 60.6292 43.5063 60.5396C43.3583 60.2729 43.5208 59.8563 43.7563 59.675C43.7833 59.6542 43.8188 59.6625 43.8417 59.6896C43.8604 59.7167 43.8542 59.7521 43.8271 59.775C43.6146 59.9375 43.5063 60.2917 43.6104 60.4813C43.7104 60.6604 43.9854 60.675 44.3833 60.5209C44.4146 60.5084 44.4521 60.525 44.4604 60.5584C44.475 60.5896 44.4563 60.625 44.425 60.6334C44.2167 60.7146 44.0542 60.7479 43.9229 60.7479Z" fill="#072A2E"/>
<path d="M43.4021 63.8667C43.4021 63.8667 43.4521 63.9521 43.5667 64.0563C43.7604 64.2458 44.1396 64.5042 44.7146 64.4354C45.2792 64.3688 45.6354 64.0021 45.8208 63.7479C45.9208 63.6042 45.9708 63.5 45.9708 63.5L43.4021 63.8667Z" fill="white"/>
<path d="M61.3479 71.8167C57.9896 78.2042 57.4146 99.2687 58.2333 110.41C50.8604 112.15 40.2667 113.012 33.9875 111.277C34.8958 99.3771 33.4354 79.7354 36.8937 69.1958C36.8937 69.1958 40.8312 68.0604 43.4167 67.9562C41.2375 70.9083 49.4062 71.7083 51.1333 67.9562C51.1333 67.9562 59.4583 69.6875 61.3479 71.8167Z" fill="#125F66"/>
<path d="M34.8187 82.4396C34.7833 82.4396 34.7604 82.4125 34.7604 82.3813C34.7604 82.3438 34.9812 78.9688 35.4375 77.1417C35.4479 77.1104 35.4792 77.0917 35.5062 77.1C35.5375 77.1104 35.5562 77.1417 35.5479 77.1688C35.0896 78.9896 34.8729 82.3542 34.8729 82.3896C34.8729 82.4125 34.85 82.4396 34.8187 82.4396Z" fill="#072A2E"/>
<path d="M72.0417 94.6667C73.0729 98.775 69.4938 100.479 61.7646 97.5958C58.1104 96.2354 55.4771 95.7563 54.6167 94.9833L55.0917 90.7438C55.7333 90.9375 59.7667 91.0375 63.3917 91.5104L60.2583 84.5813C61.1125 84.5146 64.3979 83.7417 67.2563 81.0917C69.8813 86.8229 71.1563 91.1396 72.0417 94.6667Z" fill="#FDC3A6"/>
<path d="M60.9 71.4188C60.9 71.4188 63.2771 72.6083 65.375 76.1708C67.2729 79.3979 69.1854 83.3833 68.7917 83.8396C66.375 86.6792 60.7917 87.0146 60.7917 87.0146L58.2563 82.2354L60.9 71.4188Z" fill="#125F66"/>
<path d="M70.4479 93.7271C70.4292 93.7271 70.4104 93.7167 70.4021 93.7042C68.7292 91.3938 63.4417 91.5604 63.3917 91.5646C63.3583 91.5646 63.3375 91.5438 63.3312 91.5104C63.3312 91.4792 63.3542 91.4521 63.3854 91.4521C63.4 91.4521 64.7479 91.4063 66.2875 91.6458C67.7167 91.8729 69.6021 92.4021 70.4958 93.6354C70.5146 93.6625 70.5104 93.6979 70.4833 93.7167C70.475 93.7208 70.4604 93.7271 70.4479 93.7271Z" fill="#072A2E"/>
<path d="M49.8042 95.2125C50.2771 94.9021 50.8562 94.7792 52.8229 95.0646C54.0062 95.2354 55.9021 94.8021 56.4167 94.6896L56.2271 91.0417C55.4625 90.8417 54.2187 90.025 53.2937 89.5854C52.1312 89.0396 50.8562 88.1021 49.8812 88.4375C48.2208 88.9979 46.25 89.9792 46.4937 90.5979C46.7479 91.2167 48.7 90.6063 48.7 90.6063C48.7 90.6063 47.6979 91.1583 47.8229 91.8271C47.95 92.4958 48.8312 92.7188 48.8312 92.7188C48.3562 93.4146 49.2104 94.0604 49.2104 94.0604C48.8229 94.6896 49.4229 95.4563 49.8042 95.2125Z" fill="#FDC3A6"/>
<path d="M49.2167 94.1187C49.1979 94.1187 49.1833 94.1104 49.1708 94.0958C49.1521 94.075 49.1521 94.0375 49.1792 94.0146C49.2104 93.9937 49.9208 93.4042 51.0375 93.3375C51.0375 93.3375 51.0375 93.3375 51.0417 93.3375C51.0729 93.3375 51.0958 93.3604 51.1 93.3917C51.1 93.4229 51.0771 93.45 51.0458 93.45C49.9708 93.5187 49.2604 94.0958 49.2562 94.1021C49.2437 94.1146 49.2292 94.1187 49.2167 94.1187Z" fill="#072A2E"/>
<path d="M48.8354 92.7771C48.8187 92.7771 48.8042 92.7729 48.7958 92.7583C48.7729 92.7354 48.7771 92.7 48.8 92.6771C48.8354 92.6458 49.7271 91.8687 50.7792 91.6958C50.8104 91.6875 50.8396 91.7104 50.8479 91.7417C50.8521 91.7729 50.8292 91.8 50.8021 91.8104C49.7812 91.9771 48.8854 92.7583 48.8771 92.7625C48.8625 92.7729 48.85 92.7771 48.8354 92.7771Z" fill="#072A2E"/>
<path d="M48.7042 90.6667C48.6875 90.6667 48.6646 90.6563 48.6562 90.6396C48.6417 90.6125 48.65 90.575 48.6771 90.5625C48.6875 90.5583 49.6042 90.0458 50.7021 90.0458C50.7396 90.0458 50.7792 90.0646 50.775 90.1063C50.775 90.1375 50.7479 90.1646 50.7167 90.1646C50.7125 90.1646 50.7021 90.1646 50.6979 90.1646C49.6312 90.1646 48.7417 90.6563 48.7312 90.6604C48.7229 90.6604 48.7146 90.6667 48.7042 90.6667Z" fill="#072A2E"/>
<path d="M53.3521 95.5938H37.4417V94.3H52.2167C52.8417 94.3 53.3479 94.8063 53.3479 95.4292V95.5938H53.3521Z" fill="#072A2E"/>
<path d="M20.9292 95.5938H47.5563L44.8771 78.3979H18.2479L20.9292 95.5938Z" fill="#072A2E"/>
<path d="M34.3354 87.3437C34.3833 87.6083 34.3833 87.8708 34.3333 88.1312C34.2854 88.3917 34.1937 88.6312 34.0562 88.8479C33.9167 89.0667 33.7458 89.2458 33.5396 89.3875C33.3333 89.5292 33.1104 89.6229 32.8667 89.6667C32.6229 89.7125 32.3812 89.7042 32.1375 89.6437C31.8958 89.5854 31.6708 89.4771 31.4646 89.3229C31.2583 89.1667 31.0875 88.9771 30.95 88.75C30.8125 88.5229 30.7187 88.2792 30.6708 88.0146C30.6229 87.7521 30.6229 87.4896 30.6708 87.2292C30.7187 86.9687 30.8125 86.7292 30.95 86.5125C31.0875 86.2937 31.2604 86.1146 31.4646 85.9729C31.6708 85.8292 31.8958 85.7375 32.1396 85.6917C32.3812 85.6479 32.625 85.6562 32.8667 85.7146C33.1104 85.775 33.3354 85.8833 33.5396 86.0375C33.7458 86.1917 33.9187 86.3833 34.0562 86.6104C34.1937 86.8354 34.2854 87.0812 34.3354 87.3437Z" fill="white"/>
<path d="M25.5312 95.5792C25.5312 95.5792 25.7521 95.475 25.6479 94.4771C25.5437 93.4812 25.8521 92.5062 26.8104 92.6146C26.8104 92.6146 27.6271 91.625 28.4813 92.6042C28.4813 92.6042 29.4708 92.1583 30.1229 92.9812C30.1229 92.9812 30.9417 92.5229 31.3521 93.1292C31.7646 93.7354 31.9667 95.4896 31.3563 95.9229C30.7417 96.3562 29.1729 96.5958 27.7354 96.5729C26.2979 96.5521 25.5312 95.5792 25.5312 95.5792Z" fill="#FDC3A6"/>
<path d="M26.8104 95.375C26.8 95.375 26.7917 95.3708 26.7833 95.3667C26.7563 95.3479 26.7458 95.3167 26.7604 95.2896C27.3292 94.3146 26.7604 92.6458 26.7563 92.6312C26.7458 92.6 26.7604 92.5687 26.7917 92.5604C26.8229 92.55 26.8542 92.5646 26.8646 92.5958C26.8854 92.6687 27.4563 94.3312 26.8646 95.3479C26.85 95.3667 26.8271 95.375 26.8104 95.375Z" fill="#072A2E"/>
<path d="M28.4812 95.4625C28.4729 95.4625 28.4687 95.4625 28.4583 95.4562C28.4312 95.4437 28.4187 95.4125 28.4271 95.3812C28.925 94.2417 28.4271 92.6375 28.4229 92.6187C28.4146 92.5875 28.4312 92.5562 28.4583 92.5458C28.4917 92.5375 28.5229 92.5562 28.5312 92.5833C28.5542 92.65 29.0479 94.25 28.5312 95.425C28.5271 95.4479 28.5042 95.4625 28.4812 95.4625Z" fill="#072A2E"/>
<path d="M29.9187 95.6104C29.9104 95.6104 29.8958 95.6063 29.8875 95.6021C29.8604 95.5833 29.8562 95.5479 29.8687 95.525C30.4666 94.6167 30.0687 93.0083 30.0646 92.9938C30.0541 92.9625 30.0729 92.9313 30.1041 92.925C30.1354 92.9167 30.1687 92.9354 30.1729 92.9667C30.1896 93.0354 30.5875 94.6396 29.9646 95.5875C29.9562 95.6021 29.9375 95.6104 29.9187 95.6104Z" fill="#072A2E"/>
<path d="M159.633 131.113H79.1292C77.6208 131.113 76.6208 129.802 76.9021 128.183L90.625 48.0146C90.8729 46.5625 92.2479 45.275 93.6979 45.125L170.654 37.4042C172.385 37.2333 173.646 38.3688 173.46 39.95L163.308 127.879C163.1 129.667 161.45 131.113 159.633 131.113Z" fill="#072A2E"/>
<path d="M157.504 128.987H77.0021C75.4917 128.987 74.4917 127.677 74.7729 126.058L88.4958 45.8896C88.7437 44.4375 90.1187 43.15 91.5687 43.0021L168.525 35.2813C170.256 35.1083 171.517 36.2438 171.331 37.825L161.179 125.756C160.977 127.542 159.327 128.987 157.504 128.987Z" fill="white"/>
<path d="M156.754 124.527L78.7604 124.906L90.6521 54.4187L165.831 47.8687L156.754 124.527Z" fill="#C1E1E4"/>
<path d="M94.525 48.1896C94.4125 48.8688 93.7708 49.4646 93.0937 49.5292C92.4146 49.5917 91.9625 49.0938 92.075 48.4208C92.1896 47.7479 92.8271 47.15 93.5042 47.0833C94.1771 47.0188 94.6333 47.5125 94.525 48.1896Z" fill="#125F66"/>
<path d="M103.104 47.3813C102.996 48.0646 102.346 48.6688 101.654 48.7333C100.963 48.7958 100.496 48.2938 100.604 47.6167C100.715 46.9375 101.365 46.3333 102.052 46.2646C102.744 46.2021 103.213 46.6979 103.104 47.3813Z" fill="#125F66"/>
<path d="M98.7917 47.7875C98.6792 48.4667 98.0375 49.0708 97.35 49.1354C96.6688 49.1979 96.2063 48.7 96.3208 48.0229C96.4333 47.3458 97.075 46.7437 97.7583 46.6812C98.4396 46.6125 98.9063 47.1104 98.7917 47.7875Z" fill="#125F66"/>
<path d="M143.167 110.573L94.2083 111.563L95.4708 103.679L144.233 102.246L143.167 110.573Z" fill="#125F66"/>
<path d="M113.279 104.81L112.942 108.023H114.165L114.075 108.892H111.756L112.185 104.81H113.279Z" fill="white"/>
<path d="M116.385 108.931C115.269 108.931 114.454 108.065 114.581 106.835C114.712 105.604 115.706 104.746 116.823 104.746C117.944 104.746 118.75 105.61 118.623 106.835C118.492 108.065 117.502 108.931 116.385 108.931ZM116.498 107.879C117.062 107.879 117.448 107.467 117.51 106.84C117.579 106.198 117.279 105.79 116.715 105.79C116.146 105.79 115.767 106.198 115.698 106.84C115.635 107.467 115.923 107.879 116.498 107.879Z" fill="white"/>
<path d="M122.881 106.152H121.7C121.602 105.94 121.39 105.817 121.085 105.817C120.535 105.817 120.154 106.215 120.092 106.844C120.019 107.544 120.327 107.919 120.973 107.919C121.352 107.919 121.65 107.733 121.85 107.381H120.752L120.837 106.563H122.881L122.762 107.663C122.465 108.258 121.787 108.919 120.76 108.919C119.554 108.919 118.848 108.06 118.979 106.84C119.106 105.623 119.983 104.765 121.19 104.765C122.19 104.769 122.812 105.302 122.881 106.152Z" fill="white"/>
<path d="M123.558 104.81H124.652L124.223 108.892H123.129L123.558 104.81Z" fill="white"/>
<path d="M128.929 104.81L128.498 108.892H127.404L126.185 106.608L125.946 108.892H124.852L125.281 104.81H126.375L127.59 107.119L127.835 104.81H128.929Z" fill="white"/>
<path d="M133.869 65.8771C133.177 70.9625 128.358 75.3646 123.16 75.6771C118.021 75.9854 114.504 72.1687 115.242 67.1833C115.973 62.2333 120.648 57.9167 125.737 57.5062C130.885 57.0958 134.552 60.8292 133.869 65.8771Z" fill="white"/>
<path d="M122.577 75.8625C120.273 75.8625 118.252 75.0354 116.842 73.4938C115.342 71.8584 114.712 69.6063 115.075 67.1604C115.815 62.1625 120.59 57.7584 125.719 57.3479C128.315 57.1396 130.596 57.9396 132.173 59.6042C133.702 61.2167 134.356 63.45 134.027 65.9C133.327 71.0667 128.454 75.5229 123.165 75.8438C122.971 75.8542 122.773 75.8625 122.577 75.8625ZM126.515 57.6417C126.262 57.6417 126.008 57.65 125.746 57.6729C120.76 58.075 116.115 62.3521 115.396 67.2104C115.048 69.5563 115.648 71.7084 117.081 73.2771C118.542 74.8729 120.702 75.6688 123.148 75.5188C128.287 75.2125 133.023 70.8771 133.702 65.8604C134.019 63.5125 133.394 61.3709 131.933 59.8292C130.592 58.4063 128.683 57.6417 126.515 57.6417Z" fill="#072A2E"/>
<path d="M127.835 64.0375C127.6 65.6792 126.04 67.1125 124.354 67.225C122.677 67.3417 121.515 66.1083 121.754 64.4771C121.994 62.85 123.54 61.4292 125.213 61.3042C126.89 61.1771 128.069 62.4021 127.835 64.0375Z" fill="#072A2E"/>
<path d="M128.729 71.4875L118.708 72.1333L119.079 69.6208C119.2 68.7979 119.975 68.0875 120.81 68.0292L127.752 67.55C128.602 67.4917 129.2 68.1146 129.081 68.9458L128.729 71.4875Z" fill="#072A2E"/>
<path d="M144.744 95.2896L96.8771 97.0625L97.9167 90.5396L145.631 88.4146L144.744 95.2896Z" fill="white"/>
<path d="M114.677 92.9479L114.248 93.6083H113.275L114.26 92.2479L113.515 90.9875H114.508L114.894 91.6458L115.327 90.9875H116.3L115.296 92.325L116.054 93.6125H115.06L114.677 92.9479Z" fill="#072A2E"/>
<path d="M117.51 92.9479L117.081 93.6083H116.108L117.094 92.2479L116.348 90.9875H117.344L117.727 91.6458L118.16 90.9875H119.133L118.129 92.325L118.89 93.6125H117.894L117.51 92.9479Z" fill="#072A2E"/>
<path d="M120.344 92.9479L119.915 93.6083H118.944L119.929 92.2479L119.183 90.9875H120.177L120.563 91.6458L120.996 90.9875H121.967L120.965 92.325L121.723 93.6125H120.729L120.344 92.9479Z" fill="#072A2E"/>
<path d="M123.179 92.9479L122.75 93.6083H121.777L122.763 92.2479L122.017 90.9875H123.013L123.396 91.6458L123.829 90.9875H124.802L123.798 92.325L124.558 93.6125H123.563L123.179 92.9479Z" fill="#072A2E"/>
<path d="M126.012 92.9479L125.583 93.6083H124.612L125.598 92.2479L124.852 90.9875H125.846L126.229 91.6458L126.665 90.9875H127.635L126.631 92.325L127.392 93.6125H126.398L126.012 92.9479Z" fill="#072A2E"/>
<path d="M128.848 92.9479L128.417 93.6083H127.446L128.431 92.2479L127.685 90.9875H128.679L129.065 91.6458L129.498 90.9875H130.469L129.467 92.325L130.225 93.6125H129.231L128.848 92.9479Z" fill="#072A2E"/>
<path d="M146.046 85.1521L98.4125 87.4438L99.4438 81.0063L146.919 78.3708L146.046 85.1521Z" fill="white"/>
<path d="M133.752 82.8771L110.558 84.0667L110.698 83.1583L133.877 81.9458L133.752 82.8771Z" fill="#C1E1E4"/>
<path d="M169.677 116.415C170.021 116.769 170.346 117.14 170.652 117.527C170.958 117.915 171.244 118.319 171.508 118.737C171.773 119.154 172.017 119.587 172.238 120.031C172.458 120.475 172.656 120.931 172.831 121.398C173.006 121.865 173.156 122.34 173.283 122.823C173.41 123.306 173.515 123.796 173.592 124.294C173.671 124.79 173.725 125.29 173.752 125.794C173.781 126.3 173.785 126.806 173.765 127.312C173.744 127.821 173.698 128.327 173.627 128.833C173.556 129.34 173.46 129.842 173.34 130.342C173.221 130.84 173.077 131.333 172.908 131.823C172.742 132.31 172.55 132.79 172.335 133.26C172.123 133.733 171.885 134.194 171.627 134.646C171.371 135.096 171.092 135.535 170.792 135.96C170.492 136.387 170.173 136.798 169.833 137.196C169.494 137.592 169.138 137.973 168.765 138.335C168.39 138.7 168 139.046 167.594 139.373C167.188 139.7 166.767 140.008 166.333 140.296C165.898 140.583 165.452 140.85 164.994 141.096C164.538 141.342 164.069 141.565 163.592 141.767C163.115 141.967 162.629 142.144 162.138 142.298C161.644 142.452 161.146 142.581 160.644 142.687C160.142 142.794 159.638 142.875 159.129 142.931C158.621 142.987 158.115 143.021 157.606 143.027C157.098 143.033 156.592 143.017 156.088 142.973C155.585 142.931 155.085 142.862 154.592 142.771C154.098 142.679 153.61 142.562 153.129 142.421C152.65 142.281 152.179 142.117 151.719 141.929C151.256 141.742 150.806 141.531 150.369 141.298C149.931 141.065 149.506 140.81 149.096 140.533C148.685 140.256 148.29 139.96 147.91 139.644C147.531 139.327 147.169 138.992 146.825 138.637C146.481 138.283 146.156 137.912 145.85 137.525C145.544 137.137 145.258 136.733 144.994 136.315C144.729 135.898 144.485 135.467 144.265 135.021C144.044 134.577 143.846 134.121 143.673 133.654C143.498 133.19 143.346 132.715 143.219 132.229C143.092 131.746 142.99 131.256 142.91 130.758C142.831 130.262 142.779 129.762 142.75 129.258C142.721 128.752 142.717 128.248 142.738 127.74C142.758 127.231 142.806 126.725 142.877 126.219C142.948 125.712 143.042 125.21 143.163 124.71C143.281 124.212 143.425 123.719 143.594 123.231C143.76 122.742 143.952 122.262 144.167 121.792C144.379 121.319 144.617 120.858 144.875 120.406C145.133 119.956 145.41 119.517 145.71 119.092C146.01 118.665 146.331 118.254 146.669 117.856C147.008 117.46 147.365 117.079 147.738 116.717C148.113 116.352 148.502 116.006 148.908 115.679C149.315 115.352 149.735 115.044 150.169 114.756C150.604 114.469 151.05 114.202 151.508 113.956C151.967 113.71 152.433 113.487 152.91 113.287C153.388 113.085 153.873 112.908 154.367 112.754C154.858 112.6 155.356 112.471 155.858 112.365C156.36 112.258 156.865 112.177 157.373 112.121C157.881 112.065 158.39 112.031 158.896 112.025C159.404 112.019 159.91 112.035 160.415 112.079C160.919 112.121 161.417 112.19 161.91 112.281C162.404 112.373 162.892 112.49 163.373 112.631C163.852 112.771 164.323 112.935 164.783 113.123C165.246 113.31 165.696 113.521 166.133 113.754C166.571 113.987 166.996 114.244 167.406 114.519C167.817 114.796 168.213 115.092 168.592 115.408C168.971 115.725 169.333 116.06 169.677 116.415Z" fill="#072A2E"/>
<path d="M167.61 115.252C167.954 115.606 168.281 115.977 168.585 116.365C168.892 116.754 169.177 117.156 169.442 117.575C169.706 117.994 169.95 118.425 170.171 118.869C170.392 119.313 170.59 119.769 170.765 120.235C170.94 120.702 171.09 121.177 171.217 121.66C171.344 122.144 171.448 122.633 171.525 123.131C171.604 123.627 171.658 124.127 171.687 124.633C171.715 125.138 171.719 125.644 171.698 126.15C171.677 126.658 171.631 127.165 171.56 127.671C171.49 128.177 171.394 128.679 171.273 129.179C171.154 129.679 171.01 130.171 170.842 130.66C170.675 131.148 170.483 131.627 170.271 132.1C170.056 132.571 169.821 133.031 169.562 133.483C169.304 133.933 169.025 134.373 168.725 134.798C168.425 135.225 168.106 135.635 167.767 136.033C167.429 136.429 167.073 136.81 166.698 137.175C166.323 137.538 165.933 137.883 165.527 138.21C165.121 138.54 164.7 138.846 164.267 139.133C163.833 139.423 163.385 139.69 162.929 139.933C162.471 140.179 162.002 140.402 161.525 140.604C161.048 140.804 160.562 140.981 160.071 141.135C159.577 141.29 159.081 141.419 158.577 141.525C158.075 141.631 157.571 141.713 157.062 141.769C156.556 141.827 156.048 141.858 155.54 141.865C155.031 141.873 154.525 141.854 154.021 141.81C153.519 141.769 153.019 141.7 152.525 141.608C152.031 141.517 151.544 141.4 151.065 141.258C150.583 141.119 150.112 140.954 149.652 140.767C149.19 140.579 148.742 140.369 148.302 140.135C147.865 139.902 147.44 139.648 147.029 139.371C146.619 139.094 146.223 138.798 145.844 138.481C145.465 138.165 145.104 137.829 144.758 137.475C144.415 137.121 144.09 136.75 143.783 136.363C143.477 135.975 143.192 135.571 142.927 135.152C142.662 134.735 142.421 134.304 142.2 133.858C141.979 133.415 141.781 132.958 141.606 132.494C141.431 132.027 141.279 131.552 141.152 131.067C141.025 130.583 140.923 130.094 140.844 129.598C140.765 129.1 140.712 128.6 140.683 128.096C140.654 127.592 140.65 127.085 140.671 126.577C140.694 126.069 140.74 125.563 140.81 125.056C140.881 124.55 140.975 124.048 141.096 123.548C141.217 123.05 141.36 122.556 141.527 122.069C141.696 121.581 141.885 121.1 142.1 120.629C142.315 120.156 142.55 119.696 142.808 119.244C143.067 118.794 143.346 118.354 143.646 117.929C143.946 117.504 144.265 117.092 144.602 116.696C144.942 116.298 145.298 115.917 145.673 115.554C146.046 115.19 146.437 114.844 146.842 114.517C147.248 114.19 147.669 113.881 148.102 113.594C148.537 113.306 148.983 113.04 149.442 112.794C149.9 112.548 150.367 112.325 150.844 112.125C151.323 111.923 151.806 111.746 152.3 111.592C152.792 111.438 153.29 111.308 153.792 111.202C154.294 111.096 154.8 111.015 155.306 110.958C155.815 110.902 156.323 110.871 156.831 110.863C157.34 110.856 157.844 110.873 158.348 110.917C158.852 110.96 159.35 111.027 159.844 111.119C160.34 111.21 160.825 111.327 161.306 111.469C161.785 111.608 162.256 111.773 162.719 111.96C163.179 112.15 163.629 112.36 164.067 112.592C164.504 112.825 164.929 113.081 165.34 113.356C165.75 113.633 166.146 113.929 166.525 114.246C166.904 114.563 167.267 114.898 167.61 115.252Z" fill="white"/>
<path d="M155.317 142.123C151.108 142.123 147.24 140.488 144.427 137.508C141.608 134.525 140.183 130.56 140.419 126.344C140.902 117.66 148.36 110.596 157.044 110.596C161.252 110.596 165.121 112.231 167.933 115.21C170.754 118.194 172.177 122.158 171.942 126.375C171.458 135.058 164 142.123 155.317 142.123ZM157.044 111.115C148.631 111.115 141.404 117.958 140.937 126.375C140.712 130.448 142.087 134.277 144.808 137.15C147.525 140.021 151.258 141.604 155.321 141.604C163.733 141.604 170.96 134.76 171.427 126.348C171.652 122.275 170.279 118.446 167.558 115.571C164.842 112.698 161.106 111.115 157.044 111.115Z" fill="#072A2E"/>
<path d="M148.577 123.427L148.396 123.052L156.6 118.8L156.696 118.854L164.329 123.052L164.108 123.427L156.573 119.288L148.577 123.427Z" fill="#125F66"/>
<path d="M162.146 123.238L161.554 133.906H163.398L163.992 123.238H162.146ZM163.698 124.242L163.215 132.915H162.96L163.444 124.242H163.698ZM163.142 124.242L162.658 132.915H162.404L162.888 124.242H163.142ZM162.585 124.242L162.102 132.915H161.848L162.331 124.242H162.585Z" fill="#125F66"/>
<path d="M164.19 123.767H161.894L161.925 123.238H164.217L164.19 123.767Z" fill="#125F66"/>
<path d="M163.625 133.919H161.329L161.36 133.394H163.652L163.625 133.919Z" fill="#125F66"/>
<path d="M159.158 123.238L158.567 133.906H160.41L161.004 123.238H159.158ZM160.715 124.242L160.231 132.915H159.977L160.46 124.242H160.715ZM160.154 124.242L159.669 132.915H159.417L159.9 124.242H160.154ZM159.598 124.242L159.115 132.915H158.86L159.344 124.242H159.598Z" fill="#125F66"/>
<path d="M161.202 123.767H158.906L158.938 123.238H161.229L161.202 123.767Z" fill="#125F66"/>
<path d="M160.638 133.919H158.342L158.373 133.394H160.665L160.638 133.919Z" fill="#125F66"/>
<path d="M152.117 123.238L151.525 133.906H153.369L153.96 123.238H152.117ZM153.667 124.242L153.183 132.915H152.931L153.415 124.242H153.667ZM153.11 124.242L152.627 132.915H152.375L152.858 124.242H153.11ZM152.554 124.242L152.071 132.915H151.819L152.302 124.242H152.554Z" fill="#125F66"/>
<path d="M154.156 123.767H151.862L151.892 123.238H154.187L154.156 123.767Z" fill="#125F66"/>
<path d="M153.59 133.919H151.298L151.325 133.394H153.621L153.59 133.919Z" fill="#125F66"/>
<path d="M149.129 123.238L148.538 133.906H150.381L150.973 123.238H149.129ZM150.123 124.242L149.64 132.915H149.388L149.871 124.242H150.123ZM149.567 124.242L149.083 132.915H148.831L149.315 124.242H149.567Z" fill="#125F66"/>
<path d="M151.167 123.767H148.875L148.902 123.238H151.2L151.167 123.767Z" fill="#125F66"/>
<path d="M150.602 133.919H148.31L148.338 133.394H150.633L150.602 133.919Z" fill="#125F66"/>
<path d="M157.508 128.783L157.229 133.833C157.229 133.873 157.194 133.906 157.152 133.906H156.885C156.917 133.906 156.944 133.879 156.944 133.846L157.225 128.817C157.256 128.219 156.8 127.735 156.202 127.735C155.606 127.735 155.096 128.219 155.058 128.817L154.779 133.846C154.779 133.879 154.802 133.906 154.833 133.906H154.567C154.525 133.906 154.498 133.873 154.498 133.833L154.779 128.783C154.819 128.033 155.467 127.423 156.217 127.423C156.967 127.423 157.55 128.033 157.508 128.783Z" fill="#125F66"/>
<path d="M156.41 124.015C155.66 124.015 155.015 124.625 154.973 125.375L154.929 126.198C154.929 126.24 154.956 126.271 154.996 126.271H157.577C157.617 126.271 157.65 126.24 157.654 126.198L157.7 125.375C157.74 124.625 157.16 124.015 156.41 124.015Z" fill="#125F66"/>
<path d="M158.952 127.008H153.752L153.762 126.8H158.965L158.952 127.008Z" fill="#125F66"/>
<path d="M164.302 123.481H148.375C148.248 123.481 148.152 123.383 148.162 123.256V123.242C148.171 123.117 148.275 123.017 148.402 123.017H164.329C164.456 123.017 164.552 123.117 164.542 123.242V123.256C164.533 123.383 164.429 123.481 164.302 123.481Z" fill="#125F66"/>
<path d="M156.388 122.162C156.117 122.135 155.923 121.981 155.931 121.715L156.298 121.719C156.302 121.804 156.338 121.858 156.406 121.881L156.429 121.552C156.217 121.494 155.95 121.425 155.973 121.096C155.99 120.833 156.213 120.679 156.488 120.667L156.496 120.494H156.627L156.619 120.667C156.894 120.694 157.063 120.842 157.063 121.104L156.692 121.1C156.688 121.023 156.654 120.973 156.596 120.95L156.573 121.277C156.785 121.34 157.056 121.402 157.04 121.729C157.025 121.954 156.835 122.154 156.515 122.162L156.506 122.333H156.375L156.388 122.162ZM156.448 121.231L156.465 120.942C156.388 120.956 156.338 121 156.333 121.081C156.333 121.154 156.379 121.2 156.448 121.231ZM156.556 121.592L156.538 121.892C156.619 121.877 156.673 121.823 156.677 121.742C156.681 121.665 156.631 121.625 156.556 121.592Z" fill="#125F66"/>
<path d="M88.4104 31.8813C88.4104 31.8813 83.2896 36.0542 73.575 35.7917V52.1188C73.575 52.1188 80.2063 67.4813 88.4188 67.4813C96.6313 67.4813 103.246 52.1188 103.246 52.1188V35.7917C93.5313 36.0542 88.4104 31.8813 88.4104 31.8813Z" fill="#072A2E"/>
<path d="M101.875 37.1833V51.8021C101.41 52.8146 99.8875 55.9917 97.7042 59.1146C95.4396 62.3521 91.9896 66.2083 88.4146 66.2083H88.4062C84.8354 66.2021 81.3812 62.3479 79.1167 59.1104C76.9292 55.9917 75.4 52.8146 74.9396 51.7979V37.1792C81.8562 36.9937 86.4125 34.7563 88.4062 33.5312C90.4042 34.7604 94.9604 36.9979 101.875 37.1833Z" fill="#125F66"/>
<mask id="mask0_5_87" style="mask-type:luminance" maskUnits="userSpaceOnUse" x="88" y="33" width="15" height="35">
<path d="M102.4 33.0667H88V67.2H102.4V33.0667Z" fill="white"/>
</mask>
<g mask="url(#mask0_5_87)">
<mask id="mask1_5_87" style="mask-type:luminance" maskUnits="userSpaceOnUse" x="88" y="33" width="15" height="34">
<path d="M88.1917 33.1521H102.273V66.6667H88.1917V33.1521Z" fill="white"/>
</mask>
<g mask="url(#mask1_5_87)">
<path d="M101.875 37.1833V51.8021C101.41 52.8146 99.8875 55.9917 97.7042 59.1146C95.4396 62.3521 91.9896 66.2083 88.4146 66.2083H88.4062V33.5312C90.4042 34.7604 94.9604 36.9979 101.875 37.1833Z" fill="#072A2E"/>
</g>
</g>
<path d="M83.9313 53.3667L81.525 48.0375C81.2813 47.4979 81.5208 46.8667 82.0583 46.6271C82.5979 46.3875 83.2292 46.6209 83.4688 47.1604L84.925 50.3917L95.3083 44.7334C95.8229 44.4479 96.4729 44.6417 96.7542 45.1563C97.0333 45.6771 96.8438 46.3229 96.3292 46.6042L83.9313 53.3667Z" fill="white"/>
<mask id="mask2_5_87" style="mask-type:luminance" maskUnits="userSpaceOnUse" x="7" y="178" width="179" height="2">
<path d="M7.24582 178.133H185.6V180H7.24582V178.133Z" fill="white"/>
</mask>
<g mask="url(#mask2_5_87)">
<path d="M7.26456 178.198H185.502V179.971H7.26456V178.198Z" fill="#072A2E"/>
</g>
<path d="M108.317 152.781V157.717C108.317 158.165 107.95 158.527 107.498 158.527H82.7604C82.3125 158.527 81.9458 158.16 81.9458 157.717V152.781C81.9458 152.333 82.3125 151.973 82.7604 151.973H107.498C107.95 151.973 108.317 152.34 108.317 152.781Z" fill="#125F66"/>
<path d="M108.317 157.279V157.717C108.317 158.165 107.95 158.527 107.498 158.527H82.7604C82.3125 158.527 81.9458 158.16 81.9458 157.717V157.279H108.317Z" fill="#072A2E"/>
<path d="M84.7625 156.719C84.6667 156.719 84.5958 156.642 84.5958 156.552V153.658C84.5958 153.565 84.6708 153.492 84.7625 153.492C84.8521 153.492 84.9292 153.569 84.9292 153.658V156.552C84.9333 156.642 84.8562 156.719 84.7625 156.719Z" fill="#072A2E"/>
<path d="M88.2208 156.719C88.125 156.719 88.0521 156.642 88.0521 156.552V153.658C88.0521 153.565 88.1291 153.492 88.2208 153.492C88.3104 153.492 88.3875 153.569 88.3875 153.658V156.552C88.3875 156.642 88.3146 156.719 88.2208 156.719Z" fill="#072A2E"/>
<path d="M91.6771 156.719C91.5834 156.719 91.5104 156.642 91.5104 156.552V153.658C91.5104 153.565 91.5875 153.492 91.6771 153.492C91.7688 153.492 91.8459 153.569 91.8459 153.658V156.552C91.8459 156.642 91.7688 156.719 91.6771 156.719Z" fill="#072A2E"/>
<path d="M95.1313 156.719C95.0354 156.719 94.9646 156.642 94.9646 156.552V153.658C94.9646 153.565 95.0417 153.492 95.1313 153.492C95.2208 153.492 95.2979 153.569 95.2979 153.658V156.552C95.3021 156.642 95.2271 156.719 95.1313 156.719Z" fill="#072A2E"/>
<path d="M98.5896 156.719C98.4937 156.719 98.4229 156.642 98.4229 156.552V153.658C98.4229 153.565 98.4979 153.492 98.5896 153.492C98.6792 153.492 98.7562 153.569 98.7562 153.658V156.552C98.7562 156.642 98.6833 156.719 98.5896 156.719Z" fill="#072A2E"/>
<path d="M102.048 156.719C101.952 156.719 101.879 156.642 101.879 156.552V153.658C101.879 153.565 101.956 153.492 102.048 153.492C102.137 153.492 102.215 153.569 102.215 153.658V156.552C102.215 156.642 102.137 156.719 102.048 156.719Z" fill="#072A2E"/>
<path d="M105.5 156.719C105.406 156.719 105.333 156.642 105.333 156.552V153.658C105.333 153.565 105.41 153.492 105.5 153.492C105.592 153.492 105.669 153.569 105.669 153.658V156.552C105.673 156.642 105.596 156.719 105.5 156.719Z" fill="#072A2E"/>
<path d="M105.156 159.34V164.277C105.156 164.723 104.792 165.085 104.34 165.085H79.6C79.1521 165.085 78.7875 164.719 78.7875 164.277V159.34C78.7875 158.894 79.1521 158.531 79.6 158.531H104.34C104.796 158.531 105.156 158.894 105.156 159.34Z" fill="#125F66"/>
<path d="M105.156 163.837V164.277C105.156 164.723 104.792 165.085 104.34 165.085H79.6C79.1521 165.085 78.7875 164.719 78.7875 164.277V163.837H105.156Z" fill="#072A2E"/>
<path d="M81.6062 163.277C81.5125 163.277 81.4396 163.2 81.4396 163.11V160.217C81.4396 160.123 81.5167 160.05 81.6062 160.05C81.6979 160.05 81.775 160.127 81.775 160.217V163.11C81.775 163.2 81.6979 163.277 81.6062 163.277Z" fill="#072A2E"/>
<path d="M85.0646 163.277C84.9708 163.277 84.8979 163.2 84.8979 163.11V160.217C84.8979 160.123 84.975 160.05 85.0646 160.05C85.1563 160.05 85.2313 160.127 85.2313 160.217V163.11C85.2313 163.2 85.1563 163.277 85.0646 163.277Z" fill="#072A2E"/>
<path d="M88.5187 163.277C88.4229 163.277 88.3521 163.2 88.3521 163.11V160.217C88.3521 160.123 88.4271 160.05 88.5187 160.05C88.6083 160.05 88.6854 160.127 88.6854 160.217V163.11C88.6896 163.2 88.6125 163.277 88.5187 163.277Z" fill="#072A2E"/>
<path d="M91.9771 163.277C91.8813 163.277 91.8083 163.2 91.8083 163.11V160.217C91.8083 160.123 91.8854 160.05 91.9771 160.05C92.0667 160.05 92.1438 160.127 92.1438 160.217V163.11C92.1438 163.2 92.0708 163.277 91.9771 163.277Z" fill="#072A2E"/>
<path d="M95.4333 163.277C95.3396 163.277 95.2667 163.2 95.2667 163.11V160.217C95.2667 160.123 95.3437 160.05 95.4333 160.05C95.525 160.05 95.6021 160.127 95.6021 160.217V163.11C95.6021 163.2 95.525 163.277 95.4333 163.277Z" fill="#072A2E"/>
<path d="M98.8875 163.277C98.7917 163.277 98.7208 163.2 98.7208 163.11V160.217C98.7208 160.123 98.7979 160.05 98.8875 160.05C98.9771 160.05 99.0542 160.127 99.0542 160.217V163.11C99.0583 163.2 98.9833 163.277 98.8875 163.277Z" fill="#072A2E"/>
<path d="M102.346 163.277C102.25 163.277 102.179 163.2 102.179 163.11V160.217C102.179 160.123 102.254 160.05 102.346 160.05C102.435 160.05 102.513 160.127 102.513 160.217V163.11C102.513 163.2 102.44 163.277 102.346 163.277Z" fill="#072A2E"/>
<path d="M107.363 165.9V170.835C107.363 171.283 106.996 171.644 106.544 171.644H81.8063C81.3583 171.644 80.9917 171.277 80.9917 170.835V165.9C80.9917 165.452 81.3583 165.09 81.8063 165.09H106.544C106.996 165.085 107.363 165.452 107.363 165.9Z" fill="#125F66"/>
<path d="M107.363 170.396V170.835C107.363 171.283 106.996 171.644 106.544 171.644H81.8063C81.3583 171.644 80.9917 171.277 80.9917 170.835V170.396H107.363Z" fill="#072A2E"/>
<path d="M83.8083 169.831C83.7125 169.831 83.6417 169.754 83.6417 169.665V166.771C83.6417 166.677 83.7187 166.604 83.8083 166.604C83.8979 166.604 83.975 166.681 83.975 166.771V169.665C83.9792 169.758 83.9042 169.831 83.8083 169.831Z" fill="#072A2E"/>
<path d="M87.2667 169.831C87.1708 169.831 87.1 169.754 87.1 169.665V166.771C87.1 166.677 87.175 166.604 87.2667 166.604C87.3563 166.604 87.4333 166.681 87.4333 166.771V169.665C87.4375 169.758 87.3604 169.831 87.2667 169.831Z" fill="#072A2E"/>
<path d="M90.725 169.831C90.6292 169.831 90.5562 169.754 90.5562 169.665V166.771C90.5562 166.677 90.6333 166.604 90.725 166.604C90.8146 166.604 90.8917 166.681 90.8917 166.771V169.665C90.8917 169.758 90.8146 169.831 90.725 169.831Z" fill="#072A2E"/>
<path d="M94.1771 169.831C94.0834 169.831 94.0104 169.754 94.0104 169.665V166.771C94.0104 166.677 94.0875 166.604 94.1771 166.604C94.2688 166.604 94.3459 166.681 94.3459 166.771V169.665C94.35 169.758 94.2729 169.831 94.1771 169.831Z" fill="#072A2E"/>
<path d="M97.6354 169.831C97.5396 169.831 97.4688 169.754 97.4688 169.665V166.771C97.4688 166.677 97.5458 166.604 97.6354 166.604C97.725 166.604 97.8021 166.681 97.8021 166.771V169.665C97.8063 169.758 97.7313 169.831 97.6354 169.831Z" fill="#072A2E"/>
<path d="M101.094 169.831C100.998 169.831 100.927 169.754 100.927 169.665V166.771C100.927 166.677 101.002 166.604 101.094 166.604C101.183 166.604 101.26 166.681 101.26 166.771V169.665C101.26 169.758 101.183 169.831 101.094 169.831Z" fill="#072A2E"/>
<path d="M104.552 169.831C104.456 169.831 104.383 169.754 104.383 169.665V166.771C104.383 166.677 104.46 166.604 104.552 166.604C104.642 166.604 104.719 166.681 104.719 166.771V169.665C104.719 169.758 104.642 169.831 104.552 169.831Z" fill="#072A2E"/>
<path d="M108.317 172.458V177.394C108.317 177.842 107.95 178.202 107.498 178.202H82.7604C82.3125 178.202 81.9458 177.838 81.9458 177.394V172.458C81.9458 172.01 82.3125 171.648 82.7604 171.648H107.498C107.95 171.644 108.317 172.01 108.317 172.458Z" fill="#125F66"/>
<path d="M108.317 176.95V177.39C108.317 177.837 107.95 178.198 107.498 178.198H82.7604C82.3125 178.198 81.9458 177.831 81.9458 177.39V176.95H108.317Z" fill="#072A2E"/>
<path d="M84.7625 176.39C84.6667 176.39 84.5958 176.313 84.5958 176.223V173.329C84.5958 173.235 84.6708 173.163 84.7625 173.163C84.8521 173.163 84.9292 173.24 84.9292 173.329V176.223C84.9333 176.313 84.8562 176.39 84.7625 176.39Z" fill="#072A2E"/>
<path d="M88.2208 176.39C88.125 176.39 88.0521 176.313 88.0521 176.223V173.329C88.0521 173.235 88.1291 173.163 88.2208 173.163C88.3104 173.163 88.3875 173.24 88.3875 173.329V176.223C88.3875 176.313 88.3146 176.39 88.2208 176.39Z" fill="#072A2E"/>
<path d="M91.6771 176.39C91.5834 176.39 91.5104 176.313 91.5104 176.223V173.329C91.5104 173.235 91.5875 173.163 91.6771 173.163C91.7688 173.163 91.8459 173.24 91.8459 173.329V176.223C91.8459 176.313 91.7688 176.39 91.6771 176.39Z" fill="#072A2E"/>
<path d="M95.1313 176.39C95.0354 176.39 94.9646 176.313 94.9646 176.223V173.329C94.9646 173.235 95.0417 173.163 95.1313 173.163C95.2208 173.163 95.2979 173.24 95.2979 173.329V176.223C95.3021 176.313 95.2271 176.39 95.1313 176.39Z" fill="#072A2E"/>
<path d="M98.5896 176.39C98.4937 176.39 98.4229 176.313 98.4229 176.223V173.329C98.4229 173.235 98.4979 173.163 98.5896 173.163C98.6792 173.163 98.7562 173.24 98.7562 173.329V176.223C98.7562 176.313 98.6833 176.39 98.5896 176.39Z" fill="#072A2E"/>
<path d="M102.048 176.39C101.952 176.39 101.879 176.313 101.879 176.223V173.329C101.879 173.235 101.956 173.163 102.048 173.163C102.137 173.163 102.215 173.24 102.215 173.329V176.223C102.215 176.313 102.137 176.39 102.048 176.39Z" fill="#072A2E"/>
<path d="M105.5 176.39C105.406 176.39 105.333 176.313 105.333 176.223V173.329C105.333 173.235 105.41 173.163 105.5 173.163C105.592 173.163 105.669 173.24 105.669 173.329V176.223C105.673 176.313 105.596 176.39 105.5 176.39Z" fill="#072A2E"/>
<path d="M112.379 159.34V164.277C112.379 164.723 112.746 165.085 113.198 165.085H137.937C138.385 165.085 138.75 164.719 138.75 164.277V159.34C138.75 158.894 138.385 158.531 137.937 158.531H113.198C112.742 158.531 112.379 158.894 112.379 159.34Z" fill="#125F66"/>
<path d="M112.379 163.837V164.277C112.379 164.723 112.746 165.085 113.198 165.085H137.937C138.385 165.085 138.75 164.719 138.75 164.277V163.837H112.379Z" fill="#072A2E"/>
<path d="M135.929 163.277C135.835 163.277 135.763 163.2 135.763 163.11V160.217C135.763 160.123 135.84 160.05 135.929 160.05C136.021 160.05 136.098 160.127 136.098 160.217V163.11C136.102 163.2 136.025 163.277 135.929 163.277Z" fill="#072A2E"/>
<path d="M132.477 163.277C132.381 163.277 132.31 163.2 132.31 163.11V160.217C132.31 160.123 132.385 160.05 132.477 160.05C132.567 160.05 132.644 160.127 132.644 160.217V163.11C132.644 163.2 132.567 163.277 132.477 163.277Z" fill="#072A2E"/>
<path d="M129.019 163.277C128.923 163.277 128.852 163.2 128.852 163.11V160.217C128.852 160.123 128.929 160.05 129.019 160.05C129.108 160.05 129.185 160.127 129.185 160.217V163.11C129.185 163.2 129.108 163.277 129.019 163.277Z" fill="#072A2E"/>
<path d="M125.56 163.277C125.467 163.277 125.394 163.2 125.394 163.11V160.217C125.394 160.123 125.471 160.05 125.56 160.05C125.652 160.05 125.727 160.127 125.727 160.217V163.11C125.727 163.2 125.656 163.277 125.56 163.277Z" fill="#072A2E"/>
<path d="M122.102 163.277C122.008 163.277 121.935 163.2 121.935 163.11V160.217C121.935 160.123 122.013 160.05 122.102 160.05C122.194 160.05 122.271 160.127 122.271 160.217V163.11C122.275 163.2 122.198 163.277 122.102 163.277Z" fill="#072A2E"/>
<path d="M118.65 163.277C118.554 163.277 118.483 163.2 118.483 163.11V160.217C118.483 160.123 118.558 160.05 118.65 160.05C118.74 160.05 118.817 160.127 118.817 160.217V163.11C118.817 163.2 118.74 163.277 118.65 163.277Z" fill="#072A2E"/>
<path d="M115.192 163.277C115.096 163.277 115.025 163.2 115.025 163.11V160.217C115.025 160.123 115.102 160.05 115.192 160.05C115.281 160.05 115.358 160.127 115.358 160.217V163.11C115.358 163.2 115.287 163.277 115.192 163.277Z" fill="#072A2E"/>
<path d="M108.383 165.9V170.835C108.383 171.283 108.75 171.644 109.202 171.644H133.942C134.39 171.644 134.754 171.277 134.754 170.835V165.9C134.754 165.452 134.39 165.09 133.942 165.09H109.202C108.75 165.085 108.383 165.452 108.383 165.9Z" fill="#125F66"/>
<path d="M108.383 170.396V170.835C108.383 171.283 108.75 171.644 109.202 171.644H133.942C134.39 171.644 134.754 171.277 134.754 170.835V170.396H108.383Z" fill="#072A2E"/>
<path d="M131.94 169.831C131.844 169.831 131.771 169.754 131.771 169.665V166.771C131.771 166.677 131.848 166.604 131.94 166.604C132.029 166.604 132.106 166.681 132.106 166.771V169.665C132.106 169.758 132.033 169.831 131.94 169.831Z" fill="#072A2E"/>
<path d="M128.481 169.831C128.385 169.831 128.315 169.754 128.315 169.665V166.771C128.315 166.677 128.39 166.604 128.481 166.604C128.571 166.604 128.648 166.681 128.648 166.771V169.665C128.652 169.758 128.575 169.831 128.481 169.831Z" fill="#072A2E"/>
<path d="M125.027 169.831C124.933 169.831 124.86 169.754 124.86 169.665V166.771C124.86 166.677 124.937 166.604 125.027 166.604C125.119 166.604 125.194 166.681 125.194 166.771V169.665C125.194 169.758 125.119 169.831 125.027 169.831Z" fill="#072A2E"/>
<path d="M121.569 169.831C121.475 169.831 121.402 169.754 121.402 169.665V166.771C121.402 166.677 121.479 166.604 121.569 166.604C121.66 166.604 121.738 166.681 121.738 166.771V169.665C121.738 169.758 121.66 169.831 121.569 169.831Z" fill="#072A2E"/>
<path d="M118.113 169.831C118.017 169.831 117.944 169.754 117.944 169.665V166.771C117.944 166.677 118.021 166.604 118.113 166.604C118.202 166.604 118.279 166.681 118.279 166.771V169.665C118.283 169.758 118.206 169.831 118.113 169.831Z" fill="#072A2E"/>
<path d="M114.654 169.831C114.558 169.831 114.487 169.754 114.487 169.665V166.771C114.487 166.677 114.562 166.604 114.654 166.604C114.744 166.604 114.821 166.681 114.821 166.771V169.665C114.825 169.758 114.748 169.831 114.654 169.831Z" fill="#072A2E"/>
<path d="M111.2 169.831C111.106 169.831 111.033 169.754 111.033 169.665V166.771C111.033 166.677 111.11 166.604 111.2 166.604C111.292 166.604 111.367 166.681 111.367 166.771V169.665C111.367 169.758 111.292 169.831 111.2 169.831Z" fill="#072A2E"/>
<path d="M109.221 172.458V177.394C109.221 177.842 109.587 178.202 110.04 178.202H134.777C135.225 178.202 135.592 177.838 135.592 177.394V172.458C135.592 172.01 135.225 171.648 134.777 171.648H110.04C109.587 171.644 109.221 172.01 109.221 172.458Z" fill="#125F66"/>
<path d="M109.221 176.95V177.39C109.221 177.837 109.587 178.198 110.04 178.198H134.777C135.225 178.198 135.592 177.831 135.592 177.39V176.95H109.221Z" fill="#072A2E"/>
<path d="M132.775 176.39C132.679 176.39 132.608 176.313 132.608 176.223V173.329C132.608 173.235 132.685 173.163 132.775 173.163C132.865 173.163 132.942 173.24 132.942 173.329V176.223C132.942 176.313 132.865 176.39 132.775 176.39Z" fill="#072A2E"/>
<path d="M129.317 176.39C129.223 176.39 129.15 176.313 129.15 176.223V173.329C129.15 173.235 129.227 173.163 129.317 173.163C129.408 173.163 129.483 173.24 129.483 173.329V176.223C129.483 176.313 129.412 176.39 129.317 176.39Z" fill="#072A2E"/>
<path d="M125.858 176.39C125.765 176.39 125.692 176.313 125.692 176.223V173.329C125.692 173.235 125.769 173.163 125.858 173.163C125.95 173.163 126.027 173.24 126.027 173.329V176.223C126.031 176.313 125.954 176.39 125.858 176.39Z" fill="#072A2E"/>
<path d="M122.406 176.39C122.31 176.39 122.24 176.313 122.24 176.223V173.329C122.24 173.235 122.315 173.163 122.406 173.163C122.496 173.163 122.573 173.24 122.573 173.329V176.223C122.573 176.313 122.496 176.39 122.406 176.39Z" fill="#072A2E"/>
<path d="M118.948 176.39C118.852 176.39 118.781 176.313 118.781 176.223V173.329C118.781 173.235 118.858 173.163 118.948 173.163C119.037 173.163 119.115 173.24 119.115 173.329V176.223C119.115 176.313 119.037 176.39 118.948 176.39Z" fill="#072A2E"/>
<path d="M115.49 176.39C115.396 176.39 115.323 176.313 115.323 176.223V173.329C115.323 173.235 115.4 173.163 115.49 173.163C115.581 173.163 115.656 173.24 115.656 173.329V176.223C115.662 176.313 115.585 176.39 115.49 176.39Z" fill="#072A2E"/>
<path d="M112.031 176.39C111.938 176.39 111.865 176.313 111.865 176.223V173.329C111.865 173.235 111.942 173.163 112.031 173.163C112.123 173.163 112.2 173.24 112.2 173.329V176.223C112.204 176.313 112.127 176.39 112.031 176.39Z" fill="#072A2E"/>
<path d="M176.196 75.6771L177.285 76.7667L172.331 81.7208L171.242 80.6313L176.196 75.6771Z" fill="#125F66"/>
<path d="M177.29 80.6333L176.2 81.7229L171.246 76.7708L172.335 75.6792L177.29 80.6333Z" fill="#125F66"/>
<path d="M180.592 54.175L181.338 54.9187L177.942 58.3146L177.198 57.5687L180.592 54.175Z" fill="#C1E1E4"/>
<path d="M181.34 57.5729L180.594 58.3167L177.2 54.9229L177.944 54.1771L181.34 57.5729Z" fill="#C1E1E4"/>
<mask id="mask3_5_87" style="mask-type:luminance" maskUnits="userSpaceOnUse" x="143" y="113" width="27" height="27">
<path d="M143.06 113.775H169.285V140H143.06V113.775Z" fill="white"/>
</mask>
<g mask="url(#mask3_5_87)">
<mask id="mask4_5_87" style="mask-type:luminance" maskUnits="userSpaceOnUse" x="143" y="113" width="27" height="27">
<path d="M156.173 113.775C148.931 113.775 143.06 119.646 143.06 126.887C143.06 134.129 148.931 140 156.173 140C163.415 140 169.285 134.129 169.285 126.887C169.285 119.646 163.415 113.775 156.173 113.775Z" fill="white"/>
</mask>
<g mask="url(#mask4_5_87)">
<path d="M143.06 113.775H169.285V140H143.06V113.775Z" fill="white"/>
</g>
</g>
<mask id="mask5_5_87" style="mask-type:luminance" maskUnits="userSpaceOnUse" x="152" y="120" width="8" height="7">
<path d="M152.533 120.506H159.467V126.933H152.533V120.506Z" fill="white"/>
</mask>
<g mask="url(#mask5_5_87)">
<path d="M156.169 126.908C156.379 126.908 156.588 126.888 156.794 126.846C157 126.804 157.2 126.744 157.396 126.665C157.59 126.583 157.773 126.485 157.948 126.369C158.123 126.252 158.285 126.119 158.433 125.971C158.583 125.821 158.715 125.66 158.831 125.485C158.948 125.31 159.048 125.125 159.127 124.931C159.208 124.738 159.269 124.538 159.31 124.331C159.35 124.125 159.371 123.917 159.371 123.706C159.371 123.496 159.35 123.288 159.31 123.081C159.269 122.875 159.208 122.675 159.127 122.481C159.048 122.285 158.948 122.102 158.831 121.927C158.715 121.752 158.583 121.59 158.433 121.442C158.285 121.294 158.123 121.16 157.948 121.044C157.773 120.927 157.59 120.829 157.396 120.748C157.2 120.667 157 120.606 156.794 120.565C156.588 120.525 156.379 120.504 156.169 120.504C155.96 120.504 155.752 120.525 155.546 120.565C155.34 120.606 155.14 120.667 154.944 120.748C154.75 120.827 154.567 120.927 154.392 121.044C154.217 121.16 154.054 121.294 153.906 121.442C153.756 121.59 153.625 121.752 153.508 121.927C153.392 122.102 153.292 122.285 153.213 122.481C153.131 122.675 153.071 122.875 153.029 123.081C152.987 123.288 152.969 123.496 152.969 123.706C152.969 123.917 152.99 124.125 153.029 124.329C153.071 124.535 153.131 124.735 153.213 124.931C153.294 125.125 153.392 125.308 153.508 125.483C153.625 125.658 153.758 125.821 153.906 125.969C154.056 126.117 154.217 126.25 154.392 126.367C154.567 126.483 154.75 126.583 154.946 126.663C155.14 126.744 155.34 126.804 155.546 126.846C155.752 126.888 155.96 126.908 156.169 126.908ZM156.169 121.058C156.344 121.058 156.517 121.075 156.685 121.108C156.856 121.142 157.023 121.194 157.183 121.258C157.344 121.325 157.496 121.408 157.642 121.504C157.785 121.6 157.919 121.71 158.042 121.833C158.165 121.956 158.275 122.09 158.371 122.235C158.469 122.379 158.55 122.531 158.617 122.692C158.683 122.852 158.733 123.019 158.767 123.19C158.8 123.36 158.819 123.531 158.819 123.706C158.819 123.879 158.8 124.052 158.767 124.223C158.733 124.394 158.683 124.558 158.617 124.719C158.55 124.879 158.469 125.033 158.371 125.177C158.275 125.321 158.165 125.456 158.042 125.579C157.919 125.702 157.785 125.81 157.642 125.908C157.496 126.004 157.344 126.085 157.183 126.152C157.023 126.219 156.856 126.269 156.685 126.304C156.517 126.338 156.344 126.354 156.169 126.354C155.996 126.354 155.823 126.338 155.652 126.302C155.483 126.269 155.317 126.219 155.156 126.152C154.996 126.085 154.844 126.004 154.698 125.908C154.554 125.81 154.421 125.702 154.298 125.579C154.175 125.456 154.065 125.321 153.969 125.177C153.871 125.033 153.79 124.879 153.723 124.719C153.656 124.558 153.606 124.394 153.573 124.223C153.54 124.052 153.521 123.879 153.521 123.706C153.521 123.531 153.54 123.36 153.573 123.19C153.606 123.019 153.658 122.854 153.725 122.694C153.79 122.531 153.873 122.379 153.969 122.235C154.065 122.092 154.175 121.956 154.298 121.833C154.421 121.71 154.554 121.602 154.7 121.504C154.844 121.408 154.996 121.327 155.156 121.26C155.317 121.194 155.483 121.144 155.654 121.108C155.823 121.075 155.996 121.058 156.169 121.058Z" fill="#072A2E"/>
</g>
<mask id="mask6_5_87" style="mask-type:luminance" maskUnits="userSpaceOnUse" x="151" y="126" width="11" height="8">
<path d="M151.021 126.933H161.421V133.306H151.021V126.933Z" fill="white"/>
</mask>
<g mask="url(#mask6_5_87)">
<path d="M156.169 127.419C155.833 127.419 155.5 127.452 155.169 127.517C154.837 127.583 154.517 127.681 154.206 127.81C153.896 127.94 153.6 128.098 153.319 128.285C153.04 128.473 152.779 128.685 152.542 128.923C152.304 129.16 152.09 129.421 151.902 129.7C151.717 129.981 151.558 130.277 151.429 130.587C151.3 130.898 151.202 131.219 151.135 131.55C151.069 131.881 151.037 132.215 151.035 132.552C151.035 132.646 151.054 132.737 151.092 132.827C151.127 132.915 151.179 132.992 151.246 133.058C151.315 133.127 151.392 133.179 151.479 133.215C151.567 133.252 151.658 133.269 151.754 133.269H160.585C160.823 133.269 161.015 133.173 161.158 132.983C161.254 132.854 161.304 132.71 161.302 132.552C161.302 132.215 161.269 131.881 161.204 131.55C161.137 131.219 161.04 130.898 160.91 130.587C160.781 130.277 160.623 129.981 160.435 129.7C160.248 129.421 160.035 129.16 159.798 128.923C159.56 128.685 159.3 128.473 159.021 128.285C158.74 128.098 158.444 127.94 158.133 127.81C157.823 127.681 157.502 127.583 157.171 127.517C156.84 127.452 156.506 127.419 156.169 127.419ZM160.717 132.65C160.683 132.694 160.64 132.717 160.585 132.717H151.754C151.692 132.717 151.646 132.69 151.612 132.635C151.598 132.61 151.59 132.581 151.59 132.552C151.592 132.252 151.621 131.954 151.681 131.66C151.742 131.367 151.829 131.081 151.944 130.804C152.06 130.527 152.202 130.265 152.369 130.017C152.535 129.767 152.725 129.537 152.937 129.325C153.15 129.115 153.381 128.925 153.631 128.758C153.881 128.592 154.144 128.452 154.421 128.337C154.7 128.223 154.985 128.137 155.279 128.079C155.573 128.021 155.871 127.992 156.171 127.992C156.471 127.992 156.767 128.021 157.06 128.079C157.354 128.137 157.642 128.223 157.919 128.337C158.196 128.452 158.458 128.592 158.708 128.758C158.958 128.925 159.19 129.115 159.402 129.325C159.615 129.537 159.804 129.767 159.971 130.017C160.137 130.265 160.279 130.527 160.396 130.804C160.51 131.081 160.598 131.367 160.658 131.66C160.719 131.954 160.748 132.252 160.75 132.552C160.75 132.587 160.737 132.621 160.717 132.65Z" fill="#072A2E"/>
</g>
</g>
<defs>
<clipPath id="clip0_5_87">
<rect width="200" height="200" fill="white"/>
</clipPath>
</defs>
</svg>
