<svg width="200" height="200" viewBox="0 0 200 200" fill="none" xmlns="http://www.w3.org/2000/svg">
<path d="M52.9167 182.71H148.269C154.969 182.71 161.56 180.992 167.413 177.717C187.325 166.575 193.627 140.833 181.123 121.712L177.85 116.708C172.396 108.369 171.248 97.9166 174.76 88.5854L179.154 76.9125C185.519 60.0146 171.519 42.4521 153.679 44.9479C148.3 45.7021 142.825 44.5812 138.171 41.775L112.504 26.2979C100.554 19.0917 86.1771 17.1208 72.7354 20.8458L61.375 23.9937C39.4979 30.0542 27.1438 53.25 34.2854 74.85L36.5875 81.8125C40.8167 94.6021 36.0521 108.65 24.9229 116.2C12.3292 124.746 8.10002 141.385 15.0792 154.931L18.5979 161.756C25.2292 174.627 38.4688 182.71 52.9167 182.71Z" fill="#C1E1E4"/>
<path d="M180.933 158.433C181.079 169.542 173.544 178.921 169.717 182.204H163.852C168.212 167.385 175.421 160.015 179.46 157.562C180.133 157.154 180.923 157.644 180.933 158.433Z" fill="#072A2E"/>
<path d="M181.554 121.99C187.563 144.702 172.417 171.602 165.904 181.615H152.708C158.377 138.76 167.879 128.346 179.894 121.308C180.54 120.931 181.363 121.265 181.554 121.99Z" fill="white"/>
<path fill-rule="evenodd" clip-rule="evenodd" d="M180.19 121.819C180.506 121.633 180.896 121.8 180.987 122.142C183.948 133.331 181.704 145.6 177.873 156.367C174.112 166.933 168.846 175.983 165.587 181.025H153.379C156.2 160.017 159.95 146.962 164.442 138.304C168.965 129.583 174.254 125.296 180.19 121.819ZM182.121 121.838C181.827 120.729 180.573 120.229 179.598 120.8C173.521 124.36 168.05 128.798 163.402 137.758C158.769 146.687 154.965 160.085 152.127 181.537L152.04 182.204H166.223L166.396 181.938C169.667 176.908 175.106 167.637 178.977 156.763C182.844 145.898 185.169 133.36 182.121 121.838Z" fill="#072A2E"/>
<path d="M160.277 135.963C165.467 154.996 159.525 174.777 155.642 182.204H145.965C143.788 159.008 152.635 142.14 158.452 135.508C159.025 134.854 160.048 135.121 160.277 135.963Z" fill="#072A2E"/>
<path fill-rule="evenodd" clip-rule="evenodd" d="M173.34 138.15L176.496 129.233L177.602 129.629L170.371 150.054L175.121 148.621L175.458 149.75L169.883 151.433L163.306 170.008L169.225 167.796L169.633 168.902L162.792 171.458L159.127 181.812L158.021 181.419L165.467 160.387L162.715 152.625L163.819 152.229L166.09 158.631L172.675 140.029L170.623 133.137L171.746 132.8L173.34 138.15Z" fill="#072A2E"/>
<path fill-rule="evenodd" clip-rule="evenodd" d="M155.327 151.16L156.823 142.887L157.977 143.1L154.94 159.892L158.888 157.802L159.433 158.846L154.675 161.367L152.069 175.769L155.331 173.192L156.056 174.119L151.752 177.519L150.94 182.015L149.785 181.804L151.873 170.269L148.431 165.758L149.363 165.042L152.156 168.702L155.065 152.612L152.277 149.585L153.14 148.783L155.327 151.16Z" fill="white"/>
<path d="M165.552 66.2L167.304 63.7729C167.617 63.3416 168.3 63.5646 168.298 64.0979L168.283 67.0208C168.283 67.1958 168.369 67.3625 168.51 67.4666L171.104 69.3396C171.521 69.6416 171.329 70.3 170.815 70.3312L167.588 70.5271C167.431 70.5354 167.285 70.6125 167.19 70.7354L165.002 73.5354C164.677 73.95 164.01 73.7125 164.023 73.1854L164.096 69.8562C164.1 69.6937 164.031 69.5375 163.91 69.4312L161.185 67.0437C160.783 66.6937 161.069 66.0333 161.6 66.0854L165.054 66.4229C165.248 66.4437 165.438 66.3583 165.552 66.2Z" fill="white"/>
<path d="M183.317 98.5813L184.165 98.1167C184.633 97.8604 185.154 98.3542 184.923 98.8354L184.517 99.6813C184.44 99.8396 184.444 100.027 184.529 100.181L185.092 101.21C185.34 101.663 184.883 102.175 184.406 101.981L183.288 101.529C183.142 101.471 182.977 101.477 182.838 101.548L181.629 102.15C181.158 102.385 180.656 101.885 180.894 101.413L181.44 100.329C181.513 100.183 181.519 100.015 181.454 99.8646L180.913 98.6104C180.702 98.1208 181.242 97.65 181.698 97.925L182.773 98.5688C182.94 98.6708 183.146 98.675 183.317 98.5813Z" fill="#125F66"/>
<path d="M28.4021 60.4354C28.4021 67.9688 34.5104 74.0771 42.0458 74.0771C44.6479 74.0771 47.0792 73.3479 49.1479 72.0834L53.2542 73.5417C53.9125 73.775 54.5708 73.1917 54.4208 72.5104L53.4188 67.9709C54.8521 65.8104 55.6875 63.2209 55.6875 60.4354C55.6875 52.9 49.5792 46.7917 42.0458 46.7917C34.5104 46.7917 28.4021 52.9 28.4021 60.4354Z" fill="white"/>
<path fill-rule="evenodd" clip-rule="evenodd" d="M42.0458 47.0896C34.675 47.0896 28.7 53.0646 28.7 60.4354C28.7 67.8062 34.675 73.7792 42.0458 73.7792C44.5916 73.7792 46.9708 73.0667 48.9937 71.8312L49.1145 71.7583L53.3541 73.2604C53.7937 73.4167 54.2312 73.0292 54.1312 72.575L53.102 67.9104L53.1729 67.8062C54.5749 65.6937 55.3916 63.1604 55.3916 60.4354C55.3916 53.0646 49.4166 47.0896 42.0458 47.0896ZM28.1062 60.4354C28.1062 52.7375 34.3479 46.4958 42.0458 46.4958C49.7437 46.4958 55.9833 52.7375 55.9833 60.4354C55.9833 63.2354 55.1583 65.8437 53.7354 68.0292L54.7104 72.4458C54.9125 73.3562 54.0333 74.1312 53.1562 73.8208L49.1812 72.4104C47.0937 73.6562 44.652 74.3729 42.0458 74.3729C34.3479 74.3729 28.1062 68.1333 28.1062 60.4354Z" fill="#072A2E"/>
<path d="M40.2479 64.2625C40.0833 64.2625 39.95 64.1292 39.9541 63.9667C39.977 62.9625 40.1208 62.1521 40.3854 61.5354C40.677 60.8583 41.2062 60.1937 41.975 59.5417C42.752 58.8812 43.2687 58.3458 43.525 57.9396C43.7812 57.5229 43.9083 57.0875 43.9083 56.6292C43.9083 55.2521 43.2437 54.5625 41.9104 54.5625C41.2791 54.5625 40.7708 54.75 40.3854 55.125C40.0666 55.4375 39.877 55.85 39.8166 56.3667C39.7979 56.525 39.6687 56.6542 39.5083 56.6542H36.3812C36.2166 56.6542 36.0812 56.5187 36.0916 56.3542C36.1687 54.9396 36.6916 53.8208 37.6583 52.9979C38.7 52.1167 40.1166 51.675 41.9104 51.675C43.7208 51.675 45.127 52.0958 46.125 52.9354C47.125 53.7667 47.625 54.9458 47.625 56.4708C47.625 57.1646 47.4625 57.8208 47.1375 58.4396C46.8125 59.0521 46.2458 59.7333 45.4333 60.4833L44.3958 61.425C43.7479 62.0208 43.375 62.7167 43.2812 63.5167L43.25 63.9875C43.2375 64.1417 43.1083 64.2625 42.9541 64.2625H40.2479ZM39.5791 68.0187C39.5791 67.4729 39.7708 67.0229 40.1562 66.6729C40.5479 66.3146 41.0479 66.1354 41.6541 66.1354C42.2604 66.1354 42.7562 66.3146 43.1395 66.6729C43.5333 67.0229 43.7291 67.4729 43.7291 68.0187C43.7291 68.5562 43.5375 69.0021 43.1541 69.3521C42.777 69.7021 42.277 69.8771 41.6541 69.8771C41.0312 69.8771 40.527 69.7021 40.1416 69.3521C39.7666 69.0021 39.5791 68.5562 39.5791 68.0187Z" fill="#125F66"/>
<path d="M70.8458 41.2438C70.8458 37.8938 73.5604 35.1792 76.9083 35.1792H145.89C149.237 35.1792 151.952 37.8938 151.952 41.2438V176.123C151.952 179.471 149.237 182.185 145.89 182.185H76.9083C73.5604 182.185 70.8458 179.471 70.8458 176.123V41.2438Z" fill="white"/>
<path fill-rule="evenodd" clip-rule="evenodd" d="M70.3396 41.2437C70.3396 37.6146 73.2813 34.675 76.9083 34.675H145.888C149.517 34.675 152.456 37.6146 152.456 41.2437V176.123C152.456 179.75 149.517 182.69 145.888 182.69H76.9083C73.2813 182.69 70.3396 179.75 70.3396 176.123V41.2437ZM76.9083 35.6854C73.8396 35.6854 71.35 38.1729 71.35 41.2437V176.123C71.35 179.192 73.8396 181.679 76.9083 181.679H145.888C148.958 181.679 151.446 179.192 151.446 176.123V41.2437C151.446 38.1729 148.958 35.6854 145.888 35.6854H76.9083Z" fill="#072A2E"/>
<path d="M136.531 89.2354C136.531 103.187 125.221 114.498 111.267 114.498C97.3146 114.498 86.0042 103.187 86.0042 89.2354C86.0042 75.2833 97.3146 63.9708 111.267 63.9708C125.221 63.9708 136.531 75.2833 136.531 89.2354Z" fill="#C1E1E4"/>
<path d="M147.142 72.0563C147.142 78.475 141.94 83.6771 135.521 83.6771C129.102 83.6771 123.9 78.475 123.9 72.0563C123.9 65.6375 129.102 60.4354 135.521 60.4354C141.94 60.4354 147.142 65.6375 147.142 72.0563Z" fill="white"/>
<path fill-rule="evenodd" clip-rule="evenodd" d="M135.521 60.9396C129.381 60.9396 124.404 65.9167 124.404 72.0563C124.404 78.1958 129.381 83.1708 135.521 83.1708C141.658 83.1708 146.635 78.1958 146.635 72.0563C146.635 65.9167 141.658 60.9396 135.521 60.9396ZM123.394 72.0563C123.394 65.3583 128.823 59.9292 135.521 59.9292C142.217 59.9292 147.646 65.3583 147.646 72.0563C147.646 78.7542 142.217 84.1813 135.521 84.1813C128.823 84.1813 123.394 78.7542 123.394 72.0563Z" fill="#072A2E"/>
<path fill-rule="evenodd" clip-rule="evenodd" d="M132.362 71.8042L128.952 75.2146L132.362 78.625L135.773 75.2146L139.183 78.625L142.594 75.2146L139.183 71.8042L142.594 68.3917L139.183 64.9813L135.773 68.3938L132.362 64.9813L128.952 68.3938L132.362 71.8042Z" fill="#125F66"/>
<path d="M95.2709 40.1083L92.6438 35.1792H130.154L127.065 40.3313C126.152 41.8521 124.506 42.7833 122.731 42.7833H99.7292C97.8646 42.7833 96.15 41.7542 95.2709 40.1083Z" fill="#072A2E"/>
<path d="M150.956 38.2208H71.3229C73.9583 35.5854 76.477 35.0958 77.4062 35.1792H144.873C148.119 35.1792 150.281 37.2083 150.956 38.2208Z" fill="#072A2E"/>
<path d="M150.896 179.302H71.8562C74.5958 181.981 76.1791 182.479 77.1437 182.394H145.608C148.979 182.394 150.194 180.333 150.896 179.302Z" fill="#072A2E"/>
<path d="M82.4667 54.3708C82.4667 53.8125 82.9188 53.3604 83.4771 53.3604H110.385C110.944 53.3604 111.396 53.8125 111.396 54.3708V55.45C111.396 56.0083 110.944 56.4604 110.385 56.4604H83.4771C82.9188 56.4604 82.4667 56.0083 82.4667 55.45V54.3708Z" fill="#125F66"/>
<path d="M82.4667 122.583C82.4667 122.025 82.9188 121.573 83.4771 121.573H110.385C110.944 121.573 111.396 122.025 111.396 122.583V123.662C111.396 124.219 110.944 124.673 110.385 124.673H83.4771C82.9188 124.673 82.4667 124.219 82.4667 123.662V122.583Z" fill="#072A2E"/>
<path d="M82.4667 149.362C82.4667 148.804 82.9188 148.352 83.4771 148.352H99.6458C100.204 148.352 100.656 148.804 100.656 149.362V150.373C100.656 150.931 100.204 151.383 99.6458 151.383H83.4771C82.9188 151.383 82.4667 150.931 82.4667 150.373V149.362Z" fill="#072A2E"/>
<path fill-rule="evenodd" clip-rule="evenodd" d="M81.9604 130.163C81.9604 129.325 82.6396 128.646 83.4771 128.646H137.542C138.377 128.646 139.056 129.325 139.056 130.163V140.267C139.056 141.104 138.377 141.783 137.542 141.783H83.4771C82.6396 141.783 81.9604 141.104 81.9604 140.267V130.163ZM83.4771 129.656C83.1979 129.656 82.9709 129.883 82.9709 130.163V140.267C82.9709 140.546 83.1979 140.773 83.4771 140.773H137.542C137.821 140.773 138.046 140.546 138.046 140.267V130.163C138.046 129.883 137.821 129.656 137.542 129.656H83.4771Z" fill="#C1E1E4"/>
<path fill-rule="evenodd" clip-rule="evenodd" d="M81.9604 156.435C81.9604 155.598 82.6396 154.921 83.4771 154.921H137.542C138.377 154.921 139.056 155.598 139.056 156.435V166.542C139.056 167.379 138.377 168.058 137.542 168.058H83.4771C82.6396 168.058 81.9604 167.379 81.9604 166.542V156.435ZM83.4771 155.931C83.1979 155.931 82.9709 156.156 82.9709 156.435V166.542C82.9709 166.821 83.1979 167.046 83.4771 167.046H137.542C137.821 167.046 138.046 166.821 138.046 166.542V156.435C138.046 156.156 137.821 155.931 137.542 155.931H83.4771Z" fill="#C1E1E4"/>
<path fill-rule="evenodd" clip-rule="evenodd" d="M145.248 42.4042H146.258V46.5354H145.248V42.4042Z" fill="#072A2E"/>
<path fill-rule="evenodd" clip-rule="evenodd" d="M142.665 42.9208H143.675V46.5354H142.665V42.9208Z" fill="#072A2E"/>
<path fill-rule="evenodd" clip-rule="evenodd" d="M140.081 43.9542H141.092V46.5354H140.081V43.9542Z" fill="#072A2E"/>
<path fill-rule="evenodd" clip-rule="evenodd" d="M137.498 44.9875H138.508V46.5354H137.498V44.9875Z" fill="#072A2E"/>
<path fill-rule="evenodd" clip-rule="evenodd" d="M111.256 74.4125C106.658 74.4125 102.929 78.2021 102.929 82.875V88.6708C102.929 89.3583 103.488 89.9167 104.175 89.9167C104.863 89.9167 105.419 89.3583 105.419 88.6708V82.7188C105.419 79.4417 108.033 76.7854 111.256 76.7854C114.479 76.7854 117.092 79.4417 117.092 82.7188V88.3604C117.092 89.0479 117.648 89.6063 118.338 89.6063C119.025 89.6063 119.581 89.0479 119.581 88.3604V82.875C119.581 78.2021 115.854 74.4125 111.256 74.4125Z" fill="#072A2E"/>
<path d="M100.633 88.5604C100.633 87.7229 101.31 87.0458 102.148 87.0458H120.362C121.2 87.0458 121.877 87.7229 121.877 88.5604V102.181C121.877 103.019 121.2 103.696 120.362 103.696H102.148C101.31 103.696 100.633 103.019 100.633 102.181V88.5604Z" fill="#125F66"/>
<path fill-rule="evenodd" clip-rule="evenodd" d="M112.61 96.0604C113.104 95.6646 113.419 95.0562 113.419 94.375C113.419 93.1812 112.45 92.2125 111.256 92.2125C110.063 92.2125 109.094 93.1812 109.094 94.375C109.094 95.1167 109.469 95.7708 110.038 96.1604L109.556 98.1875C109.483 98.4896 109.713 98.7792 110.023 98.7792H112.65C112.96 98.7792 113.19 98.4896 113.119 98.1875L112.61 96.0604Z" fill="white"/>
<path d="M142.929 133.698H130.637C129.875 133.698 129.387 132.885 129.746 132.213L135.892 120.715C136.273 120.002 137.294 120.002 137.675 120.715L143.821 132.213C144.181 132.885 143.692 133.698 142.929 133.698Z" fill="#072A2E"/>
<path d="M136.221 129.379H137.327L137.5 124.604H136.046L136.221 129.379ZM137.542 130.867C137.542 130.629 137.471 130.438 137.327 130.285C137.181 130.133 137 130.056 136.783 130.056C136.567 130.056 136.388 130.133 136.244 130.285C136.098 130.438 136.025 130.629 136.025 130.867C136.025 131.104 136.098 131.298 136.244 131.452C136.388 131.602 136.567 131.677 136.783 131.677C137 131.677 137.181 131.602 137.327 131.452C137.471 131.298 137.542 131.104 137.542 130.867Z" fill="white"/>
<path d="M90.0917 134.985C90.0917 135.696 89.5167 136.273 88.8063 136.273C88.0959 136.273 87.5188 135.696 87.5188 134.985C87.5188 134.275 88.0959 133.698 88.8063 133.698C89.5167 133.698 90.0917 134.275 90.0917 134.985Z" fill="#125F66"/>
<path d="M96.2687 134.985C96.2687 135.696 95.6916 136.273 94.9812 136.273C94.2708 136.273 93.6958 135.696 93.6958 134.985C93.6958 134.275 94.2708 133.698 94.9812 133.698C95.6916 133.698 96.2687 134.275 96.2687 134.985Z" fill="#125F66"/>
<path d="M102.444 134.985C102.444 135.696 101.869 136.273 101.158 136.273C100.448 136.273 99.8708 135.696 99.8708 134.985C99.8708 134.275 100.448 133.698 101.158 133.698C101.869 133.698 102.444 134.275 102.444 134.985Z" fill="#125F66"/>
<path d="M108.621 134.985C108.621 135.696 108.044 136.273 107.333 136.273C106.623 136.273 106.046 135.696 106.046 134.985C106.046 134.275 106.623 133.698 107.333 133.698C108.044 133.698 108.621 134.275 108.621 134.985Z" fill="#125F66"/>
<path d="M114.796 134.985C114.796 135.696 114.221 136.273 113.508 136.273C112.798 136.273 112.223 135.696 112.223 134.985C112.223 134.275 112.798 133.698 113.508 133.698C114.221 133.698 114.796 134.275 114.796 134.985Z" fill="#125F66"/>
<path d="M120.971 134.985C120.971 135.696 120.396 136.273 119.685 136.273C118.975 136.273 118.398 135.696 118.398 134.985C118.398 134.275 118.975 133.698 119.685 133.698C120.396 133.698 120.971 134.275 120.971 134.985Z" fill="#125F66"/>
<path d="M52.4354 85.8583C45.2709 90.9271 48.2834 99.9396 49.6334 103.431L49.0417 110.558C49.6542 112.802 51.875 117.29 55.8625 117.29C59.85 117.29 61.6771 113.458 62.0938 111.544L61.4709 106.135C66.1438 104.446 66.4542 97.6875 66.1438 92.2792C65.7729 85.8583 58.7479 81.3917 52.4354 85.8583Z" fill="#FDC3A6"/>
<path d="M49.8584 101.665L49.2375 107.794C49.0313 107.34 48.5542 106.023 48.3063 104.39C47.9959 102.346 43.0313 94.5167 44.5813 88.7292C45.8229 84.0979 49.2375 84.3021 50.7896 84.9833C51.7209 83.2812 57.3063 77.4937 65.375 78.175C73.4438 78.8562 74.3771 90.4312 67.8584 92.1333C62.6459 93.4937 56.7896 92.7 54.5146 92.1333C54.3063 92.5875 53.7063 94.1062 52.9625 96.5583C52.0313 99.6229 52.0313 100.304 51.7209 98.2604C51.4104 96.2187 50.1688 92.4729 48.6167 96.2187C47.375 99.2146 48.9271 101.098 49.8584 101.665Z" fill="#072A2E"/>
<path d="M54.3646 106.013C56.5 107.271 59.8021 106.538 61.1875 106.013L61.4834 108.215C58.4 108.969 55.4521 107.06 54.3646 106.013Z" fill="#072A2E"/>
<path d="M55.5896 113.51C60.0584 113.51 62.223 111.023 62.873 109.535C62.948 109.363 63.1125 109.24 63.3021 109.248C65.7688 109.373 69.2667 110.869 70.1438 111.171C70.1667 111.179 70.1875 111.188 70.2105 111.2C77.1021 114.904 83.6396 121.46 87.7376 145.104C89.0646 154.971 91.4355 175.558 90.298 178.975C89.1584 182.39 81.2876 182.865 77.4959 182.675H27.7105C26.3917 182.675 26.8 180.598 27.3563 179.021C27.4813 178.665 27.1417 178.271 26.7667 178.323C24.498 178.638 20.1709 178.225 15.4771 174.704C6.37504 167.304 16.9 137.704 23.7271 123.756C29.0917 112.798 41.848 109.546 47.8709 109.252C48.0646 109.244 48.2334 109.367 48.3125 109.546C48.9667 111.033 51.1313 113.51 55.5896 113.51Z" fill="#125F66"/>
<path d="M25.725 177.794C22.5958 171.144 15.9708 164.569 12.427 161.577C12.1562 161.348 11.75 161.529 11.7395 161.883C11.6541 164.944 12.0645 170.542 14.3395 173.852C16.6625 177.231 22.2645 178.258 25.3333 178.39C25.65 178.404 25.8604 178.081 25.725 177.794Z" fill="#072A2E"/>
<path d="M54.7354 160.758C41.7645 173.965 30.9354 178.215 27.1416 178.69L26.5729 181.252C37.725 179.429 49.9958 166.829 54.7354 160.758Z" fill="#072A2E"/>
<path d="M57.8646 156.506V137.221C57.8646 137.006 58.0209 136.823 58.2313 136.787L67.5875 135.229C67.8584 135.183 68.1042 135.394 68.098 135.667L67.8271 154.435C67.825 154.637 67.6834 154.812 67.4855 154.858L58.4021 156.935C58.1271 156.998 57.8646 156.79 57.8646 156.506Z" fill="white"/>
<path fill-rule="evenodd" clip-rule="evenodd" d="M67.5146 134.794C68.0563 134.704 68.5459 135.125 68.5375 135.675L68.2667 154.442C68.2605 154.848 67.9792 155.196 67.5834 155.285L58.5 157.365C57.95 157.49 57.425 157.071 57.425 156.506V137.221C57.425 136.792 57.7355 136.425 58.1605 136.354L67.5146 134.794ZM67.6605 135.662L58.3042 137.221V156.506L67.3875 154.429L67.6605 135.662Z" fill="#072A2E"/>
<path d="M33.4 150.796C32.9437 151.706 28.0896 154.021 25.7188 155.065C28.2208 154.383 42.8812 149.277 49.9 146.81C47.9083 146.81 36.2437 150.227 35.9604 149.658C35.7312 149.202 36.6229 143.396 37.0979 140.55C36.0542 143.585 33.8542 149.885 33.4 150.796Z" fill="#072A2E"/>
<path d="M54.1666 145.673C53.0291 147.494 51.7958 148.329 51.3229 148.519L53.3125 155.065C55.8729 153.642 60.1416 153.927 63.2708 152.219C66.4 150.512 65.8312 142.256 64.125 142.827C62.7583 143.281 59.3833 144.723 57.8645 145.387V141.404C55.8729 142.256 55.5895 143.396 54.1666 145.673Z" fill="#FDC3A6"/>
<path d="M72.15 110.196C69.9313 110.196 64.5042 115.377 64.5042 117.844C64.0104 119.819 77.0813 147.946 86.7 153.127C96.3188 158.31 104.21 151.894 103.471 142.025C102.694 131.663 74.725 110.196 72.15 110.196Z" fill="#125F66"/>
<path d="M103.469 141.285C94.3937 143.456 90.4812 150.908 89.6583 154.363C91.7958 154.938 95.825 156.829 100.51 152.142C103.871 148.779 103.962 143.588 103.469 141.285Z" fill="#072A2E"/>
<path d="M75.8479 141.037C81.7666 150.908 87.0292 153.869 88.9187 154.115L89.4125 157.323C87.9333 157.075 84.3812 154.856 79.0541 147.946C71.5562 138.471 65.9833 123.931 64.5042 117.844C65.7375 122.04 68.45 128.7 75.8479 141.037Z" fill="#072A2E"/>
<path d="M64.9979 102.833C65.3437 103.36 68.5625 108.617 69.9292 111.177C68.6333 112.496 65.9146 115.131 65.3958 115.131C64.7479 115.131 61.0771 114.033 59.5646 112.056C58.0542 110.079 60.4292 107.665 60.4292 107.444C60.4292 107.225 56.5417 105.469 55.8958 104.59C55.2458 103.713 56.1187 102.794 57.1062 103.04C57.6687 103.04 61.2979 105.015 62.5312 105.506C63.05 105.331 63.7646 104.767 64.9979 102.833Z" fill="#FDC3A6"/>
<path d="M55.6271 104.273C55.8229 105.656 57.6812 106.823 58.5854 107.235L59.325 106.742C58.9958 106.577 58.0917 106.1 57.1062 105.506C56.1187 104.915 55.7083 104.438 55.6271 104.273Z" fill="#072A2E"/>
<path d="M59.0792 112.91C57.3042 111.133 58.175 109.044 58.8334 108.221L60.0667 107.975C58.5855 110.442 59.4896 112.087 60.0667 112.417L59.0792 112.91Z" fill="#072A2E"/>
</svg>
