<svg width="200" height="200" viewBox="0 0 200 200" fill="none" xmlns="http://www.w3.org/2000/svg">
<mask id="mask0_5_654" style="mask-type:luminance" maskUnits="userSpaceOnUse" x="12" y="20" width="177" height="164">
<path d="M12.8 20.2667H188.8V183.425H12.8V20.2667Z" fill="white"/>
</mask>
<g mask="url(#mask0_5_654)">
<path d="M62.2542 183.352H144.14C153.583 183.352 162.7 179.9 169.777 173.646L178.233 166.173C192.604 153.475 191.402 130.696 175.775 119.583C163.196 110.637 159.538 93.5583 167.346 80.2437L168.229 78.7375C175.288 66.7021 173.642 51.4625 164.177 41.2104L152.765 28.8458C141.481 16.6229 121.727 18.2167 112.548 32.0896C105.567 42.6396 91.9375 46.5229 80.4479 41.2333L75.4584 38.9354C61.125 32.3375 44.1229 37.1562 35.3813 50.2958L29.7771 58.7208C24.2334 67.0542 23.5542 77.7146 27.998 86.6833C33.1042 96.9958 31.3896 109.385 23.673 117.919L21.4229 120.406C7.37712 135.942 11.198 160.473 29.3042 170.996L40.4584 177.477C47.0771 181.325 54.5979 183.352 62.2542 183.352Z" fill="#C1E1E4"/>
</g>
<path d="M183.41 159.413C183.55 169.917 176.4 178.788 172.769 181.894H167.206C171.342 167.877 178.181 160.908 182.013 158.588C182.65 158.202 183.402 158.665 183.41 159.413Z" fill="#072A2E"/>
<path d="M183.998 124.944C189.7 146.425 175.331 171.867 169.152 181.335H156.633C162.01 140.806 171.027 130.956 182.425 124.3C183.035 123.944 183.817 124.258 183.998 124.944Z" fill="white"/>
<path fill-rule="evenodd" clip-rule="evenodd" d="M182.704 124.781C183.004 124.606 183.375 124.765 183.46 125.088C186.269 135.671 184.142 147.273 180.506 157.456C176.938 167.45 171.942 176.01 168.852 180.779H157.269C159.946 160.908 163.502 148.563 167.765 140.373C172.056 132.127 177.073 128.071 182.704 124.781ZM184.538 124.802C184.258 123.752 183.067 123.279 182.144 123.819C176.377 127.185 171.188 131.383 166.777 139.858C162.383 148.304 158.773 160.973 156.081 181.263L155.998 181.894H169.454L169.619 181.642C172.721 176.885 177.881 168.117 181.554 157.831C185.223 147.556 187.429 135.7 184.538 124.802Z" fill="#072A2E"/>
<path d="M163.812 138.16C168.737 156.16 163.1 174.869 159.415 181.894H150.235C148.169 159.954 156.562 144.002 162.081 137.729C162.625 137.11 163.596 137.365 163.812 138.16Z" fill="#072A2E"/>
<path fill-rule="evenodd" clip-rule="evenodd" d="M176.204 140.229L179.2 131.796L180.248 132.171L173.387 151.488L177.896 150.131L178.215 151.198L172.925 152.79L166.685 170.358L172.302 168.267L172.69 169.313L166.2 171.731L162.721 181.523L161.673 181.15L168.735 161.26L166.125 153.919L167.173 153.544L169.327 159.598L175.575 142.006L173.627 135.49L174.694 135.169L176.204 140.229Z" fill="#072A2E"/>
<path fill-rule="evenodd" clip-rule="evenodd" d="M159.117 152.533L160.537 144.708L161.631 144.908L158.75 160.792L162.494 158.815L163.012 159.802L158.498 162.185L156.027 175.806L159.123 173.369L159.81 174.246L155.727 177.463L154.954 181.715L153.86 181.515L155.84 170.604L152.575 166.34L153.458 165.66L156.108 169.123L158.869 153.906L156.225 151.044L157.042 150.285L159.117 152.533Z" fill="white"/>
<path d="M60.8917 50.1104L63.0334 50.6292C63.4125 50.7208 63.4521 51.2479 63.0875 51.3937L61.0938 52.2C60.973 52.2479 60.8834 52.3521 60.8521 52.4771L60.298 54.7646C60.2084 55.1333 59.7084 55.1875 59.5438 54.8458L58.5125 52.7021C58.4625 52.5979 58.3688 52.5187 58.2584 52.4875L55.7438 51.7771C55.3709 51.6729 55.3459 51.1521 55.7084 51.0125L57.9959 50.1375C58.1084 50.0937 58.1959 50.0042 58.2334 49.8917L59.1 47.3708C59.2292 47 59.7563 47.0104 59.8688 47.3854L60.6 49.8333C60.6417 49.9708 60.7521 50.075 60.8917 50.1104Z" fill="white"/>
<path d="M43.7854 71.225L44.3374 71.6729C44.6416 71.9208 44.4499 72.4125 44.0583 72.3896L43.3708 72.3479C43.2395 72.3396 43.1145 72.3958 43.0333 72.4958L42.4895 73.1646C42.2499 73.4604 41.7729 73.2917 41.7729 72.9125L41.7687 72.025C41.7687 71.9104 41.7187 71.8 41.6312 71.7229L40.8833 71.0688C40.5916 70.8146 40.7937 70.3333 41.1812 70.3646L42.0708 70.4333C42.1916 70.4438 42.3083 70.4 42.3916 70.3146L43.0958 69.5958C43.3687 69.3167 43.8416 69.5521 43.7812 69.9396L43.6416 70.85C43.6187 70.9917 43.6749 71.1354 43.7854 71.225Z" fill="white"/>
<path d="M177.331 103.952L175.729 106.127C175.631 106.258 175.473 106.323 175.317 106.292L173.335 105.898C172.908 105.815 172.652 106.381 172.981 106.681L174.538 108.098C174.652 108.202 174.706 108.36 174.679 108.517L174.288 110.854C174.215 111.294 174.725 111.565 175.015 111.24L176.615 109.446C176.708 109.34 176.844 109.288 176.979 109.308L178.831 109.575C179.248 109.635 179.483 109.085 179.167 108.792L177.79 107.519C177.679 107.417 177.627 107.26 177.65 107.108L178.083 104.3C178.154 103.842 177.602 103.585 177.331 103.952Z" fill="#125F66"/>
<path d="M80.4417 46.3562C80.4417 43.1354 83.0521 40.525 86.2708 40.525H152.596C155.817 40.525 158.427 43.1354 158.427 46.3562V176.046C158.427 179.265 155.817 181.875 152.596 181.875H86.2708C83.0521 181.875 80.4417 179.265 80.4417 176.046V46.3562Z" fill="white"/>
<path fill-rule="evenodd" clip-rule="evenodd" d="M79.9563 46.3562C79.9563 42.8667 82.7834 40.0396 86.2709 40.0396H152.596C156.085 40.0396 158.913 42.8667 158.913 46.3562V176.044C158.913 179.533 156.085 182.36 152.596 182.36H86.2709C82.7834 182.36 79.9563 179.533 79.9563 176.044V46.3562ZM86.2709 41.0125C83.3209 41.0125 80.9271 43.4042 80.9271 46.3562V176.044C80.9271 178.996 83.3209 181.39 86.2709 181.39H152.596C155.548 181.39 157.942 178.996 157.942 176.044V46.3562C157.942 43.4042 155.548 41.0125 152.596 41.0125H86.2709Z" fill="#072A2E"/>
<path d="M142.142 92.5C142.142 105.113 131.919 115.335 119.308 115.335C106.696 115.335 96.4729 105.113 96.4729 92.5C96.4729 79.8896 106.696 69.6667 119.308 69.6667C131.919 69.6667 142.142 79.8896 142.142 92.5Z" fill="#C1E1E4"/>
<path d="M103.927 45.2646L101.4 40.525H137.469L134.498 45.4771C133.619 46.9417 132.038 47.8375 130.331 47.8375H108.215C106.421 47.8375 104.773 46.8479 103.927 45.2646Z" fill="#072A2E"/>
<path d="M157.471 43.45H80.9C83.4354 40.9146 85.8563 40.4438 86.75 40.525H151.621C154.742 40.525 156.821 42.475 157.471 43.45Z" fill="#072A2E"/>
<path d="M157.412 179.102H81.4125C84.0479 181.679 85.5687 182.158 86.4979 182.075H152.327C155.569 182.075 156.735 180.094 157.412 179.102Z" fill="#072A2E"/>
<path d="M91.6146 58.9792C91.6146 58.4417 92.05 58.0063 92.5875 58.0063H118.46C118.996 58.0063 119.431 58.4417 119.431 58.9792V60.0167C119.431 60.5521 118.996 60.9875 118.46 60.9875H92.5875C92.05 60.9875 91.6146 60.5521 91.6146 60.0167V58.9792Z" fill="#125F66"/>
<path d="M91.6146 124.567C91.6146 124.029 92.05 123.594 92.5875 123.594H118.46C118.996 123.594 119.431 124.029 119.431 124.567V125.602C119.431 126.14 118.996 126.575 118.46 126.575H92.5875C92.05 126.575 91.6146 126.14 91.6146 125.602V124.567Z" fill="#072A2E"/>
<path d="M91.6146 150.315C91.6146 149.779 92.05 149.344 92.5875 149.344H108.133C108.669 149.344 109.104 149.779 109.104 150.315V151.285C109.104 151.823 108.669 152.258 108.133 152.258H92.5875C92.05 152.258 91.6146 151.823 91.6146 151.285V150.315Z" fill="#072A2E"/>
<path d="M91.6146 131.852C91.6146 131.317 92.05 130.881 92.5875 130.881H144.571C145.106 130.881 145.542 131.317 145.542 131.852V141.571C145.542 142.106 145.106 142.542 144.571 142.542H92.5875C92.05 142.542 91.6146 142.106 91.6146 141.571V131.852Z" fill="#C1E1E4"/>
<path d="M91.6146 157.117C91.6146 156.579 92.05 156.146 92.5875 156.146H144.571C145.106 156.146 145.542 156.579 145.542 157.117V166.833C145.542 167.371 145.106 167.804 144.571 167.804H92.5875C92.05 167.804 91.6146 167.371 91.6146 166.833V157.117Z" fill="#C1E1E4"/>
<path fill-rule="evenodd" clip-rule="evenodd" d="M151.979 47.4708H152.952V51.4458H151.979V47.4708Z" fill="#072A2E"/>
<path fill-rule="evenodd" clip-rule="evenodd" d="M149.496 47.9688H150.469V51.4458H149.496V47.9688Z" fill="#072A2E"/>
<path fill-rule="evenodd" clip-rule="evenodd" d="M147.012 48.9604H147.985V51.4458H147.012V48.9604Z" fill="#072A2E"/>
<path fill-rule="evenodd" clip-rule="evenodd" d="M144.529 49.9542H145.5V51.4458H144.529V49.9542Z" fill="#072A2E"/>
<path d="M119.527 92.7771C113.1 92.7771 107.804 97.6938 107.094 104.023C107.002 104.823 107.665 105.477 108.469 105.477H130.583C131.39 105.477 132.05 104.823 131.96 104.023C131.248 97.6938 125.954 92.7771 119.527 92.7771Z" fill="white"/>
<path d="M125.69 85.3042C125.69 88.6063 123.015 91.2813 119.712 91.2813C116.412 91.2813 113.735 88.6063 113.735 85.3042C113.735 82.0042 116.412 79.3271 119.712 79.3271C123.015 79.3271 125.69 82.0042 125.69 85.3042Z" fill="white"/>
<path d="M68.8229 104.665L70.7979 110.771C71.5875 113.64 68.8229 116.662 62.2438 116.662C56.9792 116.662 55.9292 113.656 56.1917 111.223L57.7688 102.84C56.4542 101.535 55.4 100.752 55.4 94.4937C55.4 86.6687 59.6125 83.8 64.6125 83.8C69.6125 83.8 73.8229 87.9687 73.8229 95.5375C73.825 102.056 70.3146 104.144 68.8229 104.665Z" fill="#EFCB96"/>
<path d="M81.3125 98.9458C85.2271 103.029 84.7021 113.083 84.1021 116.146C77.7604 111.444 73.4687 109.885 71.2458 109.708C70.8875 109.679 70.8229 110.51 70.5729 110.546L68.6875 104.306C71.5208 103.54 73.325 100.988 73.5833 95.1167C73.7896 90.4208 71.4354 87.2042 70.2333 86.1833C66.1104 85.9271 64.05 91.0333 62.7625 93.075C61.7312 94.7083 60.9583 94.4354 60.7021 94.0958C59.4125 91.0333 57.0937 90.7771 56.5791 94.0958C56.1666 96.75 58.125 98.0938 59.1541 98.4354L56.1916 111.448C55.8458 111.467 55.5187 110.321 55.5187 109.81C50.0125 110.421 43.9625 113.331 42.1583 114.54C41.3854 106.373 48.85 100.221 50.9104 95.1167C52.9729 90.0125 50.1375 87.4583 52.2 84.1417C53.7271 81.6813 56.5791 81.3333 58.3812 80.8229C60.1854 80.3125 61.2166 78.2708 63.2771 77.25C66.8833 75.9729 70.3187 79.1208 71.2646 81.3333C71.8646 81.2479 73.5833 81.4854 75.6437 83.1208C81.5687 87.2042 76.4166 93.8396 81.3125 98.9458Z" fill="#072A2E"/>
<path d="M63.5896 104.34C66.6583 105.058 68.45 104.79 68.9625 104.565L69.7292 107.035C66.4542 107.396 64.2708 105.388 63.5896 104.34Z" fill="#072A2E"/>
<path d="M62.9 114.3C68.0688 114.3 70.4938 111.117 71.0604 109.523C80.9188 109.523 89.0792 116.346 92.8188 121.123C96.5584 125.898 110.498 151.142 107.098 161.375C104.379 169.563 97.8063 170.813 94.1792 170.244L94.7813 181.096C94.8229 181.871 94.2084 182.525 93.4334 182.525H43.5209C38.3084 182.865 26.9292 183.002 23.1209 180.819C18.3625 178.09 13.9417 164.104 23.1209 136.473C30.4646 114.369 47.7146 109.296 55.4209 109.523C55.7604 111.117 57.7334 114.3 62.9 114.3Z" fill="#125F66"/>
<path d="M38.1417 182.544C29.9458 172.521 21.2792 168.946 17.9708 168.41C17.9708 171.623 19.5708 177.725 22.4521 180.617C24.7583 182.929 33.8729 182.867 38.1417 182.544Z" fill="#072A2E"/>
<path d="M101.535 169.052C106.915 166.996 107.833 159.629 107.621 156.202C102.752 158.515 96.2 166.375 93.5312 170.017C93.9583 170.552 96.1583 171.108 101.535 169.052Z" fill="#072A2E"/>
<path d="M62.2208 145.683C59.8417 146.706 42.1604 155.006 34.0021 158.988C35.0208 157.281 39.1021 154.552 40.1208 153.529C41.1417 152.506 44.8812 140.567 44.8812 142.271C44.8812 143.977 42.8417 151.823 43.8625 151.823C44.8812 151.823 59.1604 145.683 62.2208 145.683Z" fill="#072A2E"/>
<path d="M69.3604 155.575C54.9458 174.952 43.1812 181.842 39.1021 182.865H46.2416C58.4812 173.315 66.7541 160.694 69.3604 155.575Z" fill="#072A2E"/>
<path d="M87.0396 152.165C87.5833 158.715 92.2521 166.946 94.5187 170.244V173.315C89.3521 167.583 87.3791 156.827 87.0396 152.165Z" fill="#072A2E"/>
<path d="M93.5 142.954C95.4042 144.046 98.825 146.594 100.3 147.729L94.8583 141.248C94.5875 142.34 93.8396 142.84 93.5 142.954Z" fill="#072A2E"/>
<path d="M73.402 130.369L70.7812 156.004C70.75 156.302 71.0145 156.546 71.3083 156.494L83.6625 154.269C83.852 154.233 84 154.083 84.027 153.892L87.6375 129.525C87.6791 129.24 87.4479 128.988 87.1604 129.008L73.8166 129.965C73.6 129.981 73.4229 130.15 73.402 130.369Z" fill="white"/>
<path fill-rule="evenodd" clip-rule="evenodd" d="M87.1292 128.558C87.7021 128.517 88.1667 129.021 88.0813 129.592L84.4709 153.958C84.4146 154.34 84.1209 154.644 83.7417 154.713L71.3875 156.938C70.7979 157.044 70.2729 156.554 70.3334 155.958L72.9542 130.323C72.9979 129.888 73.3479 129.546 73.7854 129.515L87.1292 128.558ZM87.1917 129.458L73.8479 130.415L71.2271 156.05L83.5834 153.825L87.1917 129.458Z" fill="#072A2E"/>
<path d="M91.1188 142.954L87.0396 149.094C81.6001 149.435 80.5792 146.367 81.6001 141.59C82.4167 137.769 85.4542 137.723 86.7001 138.179L87.3792 135.45C91.1188 138.521 91.1188 141.477 91.1188 142.954Z" fill="#EFCB96"/>
<path d="M67.3208 142.273C66.5041 144.456 64.9395 145.91 64.2604 146.367L68.6791 153.188C70.0395 151.823 71.7395 151.823 75.4791 150.119C79.2208 148.413 80.2395 142.273 79.2208 138.86C78.4041 136.131 73.6666 138.179 71.7395 139.544L72.0791 135.792C69.7 136.815 68.3395 139.544 67.3208 142.273Z" fill="#EFCB96"/>
<path d="M185.867 78.4125C185.867 87.5354 178.471 94.9292 169.348 94.9292C160.225 94.9292 152.829 87.5354 152.829 78.4125C152.829 69.2896 160.225 61.8937 169.348 61.8937C178.471 61.8937 185.867 69.2896 185.867 78.4125Z" fill="white"/>
<path fill-rule="evenodd" clip-rule="evenodd" d="M169.348 62.3C160.45 62.3 153.235 69.5125 153.235 78.4125C153.235 87.3104 160.45 94.525 169.348 94.525C178.246 94.525 185.46 87.3104 185.46 78.4125C185.46 69.5125 178.246 62.3 169.348 62.3ZM152.423 78.4125C152.423 69.0646 160 61.4875 169.348 61.4875C178.694 61.4875 186.273 69.0646 186.273 78.4125C186.273 87.7583 178.694 95.3354 169.348 95.3354C160 95.3354 152.423 87.7583 152.423 78.4125Z" fill="#072A2E"/>
<path fill-rule="evenodd" clip-rule="evenodd" d="M169.544 68.1854C166.394 68.1854 163.84 70.7813 163.84 73.9833V77.9521C163.84 78.4229 164.223 78.8063 164.694 78.8063C165.165 78.8063 165.546 78.4229 165.546 77.9521V73.875C165.546 71.6313 167.335 69.8125 169.544 69.8125C171.75 69.8125 173.54 71.6313 173.54 73.875V77.7396C173.54 78.2104 173.923 78.5917 174.394 78.5917C174.865 78.5917 175.246 78.2104 175.246 77.7396V73.9833C175.246 70.7813 172.694 68.1854 169.544 68.1854Z" fill="#072A2E"/>
<path d="M162.267 78.0563C162.267 77.3833 162.812 76.8396 163.485 76.8396H175.6C176.273 76.8396 176.819 77.3833 176.819 78.0563V87.025C176.819 87.6979 176.273 88.2438 175.6 88.2438H163.485C162.812 88.2438 162.267 87.6979 162.267 87.025V78.0563Z" fill="#125F66"/>
<path fill-rule="evenodd" clip-rule="evenodd" d="M170.471 83.0125C170.808 82.7417 171.023 82.325 171.023 81.8583C171.023 81.0417 170.36 80.3792 169.544 80.3792C168.725 80.3792 168.062 81.0417 168.062 81.8583C168.062 82.3667 168.319 82.8167 168.708 83.0833L168.377 84.4708C168.329 84.6771 168.485 84.875 168.698 84.875H170.498C170.71 84.875 170.867 84.6771 170.817 84.4708L170.471 83.0125Z" fill="white"/>
</svg>
